<?xml version="1.0" standalone="no"?>
<!DOCTYPE svg PUBLIC "-//W3C//DTD SVG 20010904//EN"
 "http://www.w3.org/TR/2001/REC-SVG-20010904/DTD/svg10.dtd">
<svg version="1.0" xmlns="http://www.w3.org/2000/svg"
 width="512.000000pt" height="512.000000pt" viewBox="0 0 512.000000 512.000000"
 preserveAspectRatio="xMidYMid meet">
<metadata>
Created by potrace 1.11, written by Peter Selinger 2001-2013
</metadata>
<g transform="translate(0.000000,512.000000) scale(0.100000,-0.100000)"
fill="#000000" stroke="none">
<path d="M2378 5116 c-1 -2 -34 -6 -73 -10 -65 -5 -218 -29 -275 -41 -14 -3
-36 -8 -50 -11 -53 -10 -205 -56 -308 -93 -442 -159 -855 -464 -1147 -848 -25
-32 -48 -62 -52 -68 -77 -96 -223 -362 -287 -525 -52 -130 -112 -323 -130
-420 -3 -14 -9 -47 -14 -75 -6 -27 -13 -75 -17 -105 -4 -30 -9 -68 -12 -85 -8
-62 -10 -433 -2 -510 19 -175 77 -463 109 -540 5 -11 19 -49 31 -85 151 -446
474 -878 894 -1198 6 -4 39 -27 75 -51 36 -25 77 -53 92 -63 15 -10 30 -18 33
-18 3 0 22 -10 43 -23 47 -30 143 -79 207 -107 28 -12 70 -31 94 -42 127 -57
408 -135 571 -158 47 -6 96 -14 110 -17 14 -3 131 -7 260 -8 246 -3 346 5 549
46 875 177 1615 833 1901 1688 38 116 80 279 95 371 4 25 9 54 11 65 20 106
33 495 20 575 -2 14 -7 57 -11 95 -6 57 -30 194 -61 344 -7 36 -90 285 -109
328 -49 112 -123 258 -170 338 -301 512 -806 925 -1360 1113 -287 97 -493 132
-807 137 -113 2 -208 2 -210 1z"/>
</g>
</svg>
