<?xml version="1.0" encoding="UTF-8"?>
<svg width="97px" height="97px" viewBox="0 0 97 97" version="1.1" xmlns="http://www.w3.org/2000/svg" xmlns:xlink="http://www.w3.org/1999/xlink">
    <!-- Generator: Sketch 48.1 (47250) - http://www.bohemiancoding.com/sketch -->
    <title>Group 3</title>
    <desc>Created with Sketch.</desc>
    <defs></defs>
    <g id="Page-1" stroke="none" stroke-width="1" fill="none" fill-rule="evenodd">
        <g id="Group-3" transform="translate(-1.000000, -1.000000)">
            <rect id="Rectangle" fill="#FFFFFF" transform="translate(49.497475, 49.497475) rotate(45.000000) translate(-49.497475, -49.497475) " x="14.4974747" y="14.4974747" width="70" height="70" rx="3"></rect>
            <g id="goal" transform="translate(27.000000, 27.000000)"></g>
            <path d="M72,32.7854883 L65.2502637,33.7495605 L66.2145996,27 L61.0804688,32.1339551 C57.5857617,29.7549316 53.3646387,28.363623 48.8181445,28.363623 C36.768252,28.363623 27,38.131875 27,50.1818555 C27,62.2318359 36.768252,72 48.8181445,72 C60.8679492,72 70.6362891,62.231748 70.6362891,50.1818555 C70.6362891,45.6353613 69.2449805,41.4140625 66.865957,37.9193555 L72,32.7854883 Z M48.8181445,66.5454199 C39.780791,66.5454199 32.4544922,59.2191211 32.4544922,50.1817676 C32.4544922,41.1444141 39.780791,33.8182031 48.8181445,33.8182031 C52.5995508,33.8182031 56.0808984,35.1014941 58.8517383,37.2554297 L54.9488672,41.1583008 C53.2016016,39.9687891 51.0912598,39.2727832 48.8180566,39.2727832 C42.7930664,39.2727832 37.9089844,44.1569531 37.9089844,50.1818555 C37.9089844,56.2067578 42.7931543,61.0909277 48.8180566,61.0909277 C54.842959,61.0909277 59.7271289,56.2067578 59.7271289,50.1818555 C59.7271289,47.9086523 59.031123,45.7983105 57.8416113,44.0510449 L61.7444824,40.1481738 C63.8985059,42.9191016 65.1816211,46.4004492 65.1816211,50.1817676 C65.1817969,59.219209 57.8554102,66.5454199 48.8181445,66.5454199 Z M47.8940625,51.1058496 C48.6927246,51.9046875 49.9879688,51.9046875 50.7868945,51.1058496 L53.8410059,48.0517383 C54.1187402,48.7062598 54.2727246,49.4261719 54.2727246,50.1818555 C54.2727246,53.1943945 51.8305957,55.6364355 48.8181445,55.6364355 C45.8056934,55.6364355 43.3635645,53.1943945 43.3635645,50.1818555 C43.3635645,47.1693164 45.8056934,44.7272754 48.8181445,44.7272754 C49.573916,44.7272754 50.2937402,44.881084 50.9481738,45.1589941 L47.8940625,48.2131055 C47.0954004,49.0118555 47.0954004,50.3070117 47.8940625,51.1058496 Z" id="Shape" fill="#20A2E8" fill-rule="nonzero"></path>
        </g>
    </g>
</svg>