<?xml version="1.0" encoding="UTF-8"?>
<svg width="97px" height="97px" viewBox="0 0 97 97" version="1.1" xmlns="http://www.w3.org/2000/svg" xmlns:xlink="http://www.w3.org/1999/xlink">
    <!-- Generator: Sketch 48.1 (47250) - http://www.bohemiancoding.com/sketch -->
    <title>Group 6</title>
    <desc>Created with Sketch.</desc>
    <defs></defs>
    <g id="Page-1" stroke="none" stroke-width="1" fill="none" fill-rule="evenodd">
        <g id="Group-6" transform="translate(-1.000000, -1.000000)">
            <rect id="Rectangle" fill="#20A2E8" transform="translate(49.497475, 49.497475) rotate(45.000000) translate(-49.497475, -49.497475) " x="14.4974747" y="14.4974747" width="70" height="70" rx="3"></rect>
            <g id="doctor" transform="translate(28.000000, 28.000000)" fill="#FFFFFF" fill-rule="nonzero">
                <circle id="Oval" cx="30.5" cy="34.5" r="1.5"></circle>
                <path d="M15,27.9758065 C14.2843327,27.3790323 13.4235977,27 12.5145068,27 C11.5764023,27 10.7059961,27.3790323 10,28 C11.3539652,27.7580645 13.0754352,27.6290323 15,27.9758065 Z" id="Shape"></path>
                <path d="M41.9660475,38.5811966 C40.9370394,31.5042735 36.7695567,25.5213675 31.0328368,22.2649573 C31.2986639,24.2564103 31.564491,27.6495726 30.929936,30.6410256 C32.1990459,31.1025641 33.1337283,32.3675214 33.1337283,33.8632479 C33.1337283,35.7606838 31.7016921,37.2478632 29.9009279,37.2478632 C28.1001638,37.2478632 26.6681276,35.7264957 26.6681276,33.8632479 C26.6681276,32.2393162 27.731436,30.9059829 29.1720472,30.5384615 C30.038129,27.017094 29.3349735,22.4615385 29.137747,21.2991453 C28.9062202,21.1965812 28.6746933,21.1025641 28.4345915,21 C26.5052013,22.991453 23.8983809,24.2222222 21.0000082,24.2222222 C18.1702361,24.2222222 15.5634156,23.025641 13.6683258,21.1025641 C13.3681984,21.7692308 12.802244,23.3931624 12.9051448,25.8205128 C15.734917,26.3846154 17.904409,29.8376068 17.904409,33.991453 C17.904409,35.5213675 17.6042816,37.0512821 17.0383272,38.3418803 C16.7296248,39.3162393 15.4347896,39.7094017 14.8345349,39.7094017 C13.9341529,39.7094017 13.2052722,38.9487179 13.2052722,37.982906 C13.2052722,37.017094 13.9427279,36.2564103 14.8345349,36.2564103 C15.100362,36.2564103 15.4690899,36.3247863 15.8721181,36.4871795 C16.5581234,34.5128205 16.0350443,31.8376068 15.7091918,30.9401709 C12.5106917,29.4786325 9.57801875,30.4786325 8.50613535,30.9401709 C8.206008,31.8376068 7.6314785,34.2820513 8.34320907,36.4871795 C8.74623723,36.3247863 9.10639005,36.2564103 9.3807922,36.2564103 C10.2811743,36.2564103 11.010055,37.017094 11.010055,37.982906 C11.010055,38.9487179 10.2725992,39.7094017 9.3807922,39.7094017 C8.81483777,39.7094017 7.54572783,39.3418803 7.21130021,38.4444444 C6.61104551,37.1196581 6.31091815,35.5897436 6.31091815,33.991453 C6.31091815,29.8717949 8.44610988,26.4529915 11.2072815,25.8205128 C11.138681,24.2222222 11.3444826,22.8974359 11.5760094,21.9316239 C5.49628677,25.1282051 1.09727731,31.2735043 0.0339689846,38.5811966 C-0.231858098,40.3760684 1.09727731,42 2.80371568,42 L39.1705756,42 C40.9027391,42 42.2318745,40.3760684 41.9660475,38.5811966 Z" id="Shape"></path>
                <path d="M20.9830458,22 C25.9564463,22 30,17.726378 30,12.4461942 C30,11.7125984 29.9317544,11.0216535 29.769671,10.3221785 C29.769671,10.3221785 25.5299111,9 20.9830458,9 C16.4447112,9 12.2305434,10.3221785 12.2305434,10.3221785 C12.0940521,11.0216535 12.0002144,11.7125984 12.0002144,12.4461942 C11.9660916,17.7519685 16.0096453,22 20.9830458,22 Z" id="Shape"></path>
                <path d="M29.9680621,9 C30.6706949,6.45718433 31.3353474,3.88824383 32,1.34542816 C24.7932672,-0.448476052 17.1972378,-0.448476052 10,1.34542816 C10.6646526,3.88824383 11.3672853,6.45718433 12.0319379,9 C17.8903755,7.53701016 24.1001295,7.53701016 29.9680621,9 Z M18,2.75292154 L19.7460317,2.75292154 L19.7460317,1 L21.2539683,1 L21.2539683,2.75292154 L23,2.75292154 L23,4.24707846 L21.2539683,4.24707846 L21.2539683,6 L19.7460317,6 L19.7460317,4.24707846 L18,4.24707846 L18,2.75292154 Z" id="Shape"></path>
            </g>
        </g>
    </g>
</svg>