<?xml version="1.0" encoding="UTF-8"?>
<svg width="400px" height="113px" viewBox="0 0 400 113" version="1.1" xmlns="http://www.w3.org/2000/svg" xmlns:xlink="http://www.w3.org/1999/xlink">
    <!-- Generator: Sketch 48.1 (47250) - http://www.bohemiancoding.com/sketch -->
    <title>logo</title>
    <desc>Created with Sketch.</desc>
    <defs>
        <linearGradient x1="50%" y1="29.9301862%" x2="50%" y2="100%" id="linearGradient-1">
            <stop stop-color="#20A2E8" offset="0%"></stop>
            <stop stop-color="#1E83BA" offset="100%"></stop>
        </linearGradient>
    </defs>
    <g id="Page-1" stroke="none" stroke-width="1" fill="none" fill-rule="evenodd">
        <g id="logo">
            <g id="tooth" fill-rule="nonzero">
                <circle id="Oval" fill="#20A2E8" cx="56.3033175" cy="56.3033175" r="56.3033175"></circle>
                <path d="M112.503886,52.9383886 L84.676019,25.1105213 L58.1201896,64.0470142 L49.6090995,65.8494787 L41.3418009,83.2166825 L43.6500474,85.2625592 L38.0504265,93.4729858 L57.1935545,112.595261 C87.8779147,112.119052 112.606635,87.1010427 112.606635,56.3033175 C112.606635,55.1734597 112.569479,54.0523223 112.503886,52.9383886 Z" id="Shape" fill="#1E83BA"></path>
                <path d="M56.3033175,69.3569668 C64.549763,69.3569668 66.2540284,83.5719431 67.7687204,92.036019 C68.1952607,94.4189573 73.3205687,95.1416114 74.7905213,93.2181991 C93.1169668,69.2371564 91.4654028,42.9721327 89.9294787,35.7311848 C88.2312796,27.7251185 83.4775355,21.3201896 75.5184834,21.3201896 C67.5601896,21.3201896 61.930237,24.0254028 56.3036967,29.6523223 C50.6771564,24.0254028 45.0472038,21.3201896 37.08891,21.3201896 C29.1298578,21.3201896 24.3761137,27.7251185 22.6779147,35.7311848 C21.1419905,42.9721327 19.4900474,69.2371564 37.816872,93.2181991 C39.2868246,95.1416114 44.4121327,94.4193365 44.838673,92.036019 C46.3526066,83.5719431 48.056872,69.3569668 56.3033175,69.3569668 Z" id="Shape" fill="#FFFFFF"></path>
                <path d="M89.9290995,35.7311848 C88.2309005,27.7251185 83.4771564,21.3201896 75.5181043,21.3201896 C67.5598104,21.3201896 61.9298578,24.0254028 56.3033175,29.6523223 C56.2612322,29.610237 56.2191469,29.5719431 56.1770616,29.530237 L56.1770616,69.3641706 C56.2199052,69.3634123 56.2600948,69.357346 56.3033175,69.357346 C64.549763,69.357346 66.2540284,83.5723223 67.7687204,92.0363981 C68.1952607,94.4193365 73.3205687,95.1419905 74.7905213,93.2181991 C93.1169668,69.2371564 91.4654028,42.9721327 89.9290995,35.7311848 Z" id="Shape" fill="#EDECEB"></path>
            </g>
            <g id="Иль-Дент" transform="translate(125.000000, 31.000000)">
                <g id="path-3-link" fill="#000000" fill-rule="nonzero">
                    <path d="M16.992038,39.521327 L0.612891,39.521327 L2.687583,33.8432227 C3.451947,33.8432227 4.025211,33.6066374 4.407393,33.1334597 C4.789575,32.660282 4.980664,32.0597193 4.980664,31.3317536 C4.980664,30.494593 5.007962,28.7747997 5.062559,26.1723223 C5.117157,23.5698448 5.162654,21.4132787 5.199052,19.7025592 C5.199052,18.4286192 5.171754,16.9454113 5.117156,15.252891 C5.062559,13.5603707 5.017062,11.767782 4.980664,9.8750711 C4.980664,8.9651139 4.634885,8.2007614 3.943318,7.5819905 C3.25175,6.9632197 2.432801,6.6538389 1.486445,6.6538389 L3.397346,1.1941232 L19.06673,1.1941232 L17.101232,6.6538389 C16.555258,6.6538389 16.03659,6.8995236 15.545213,7.3909005 C15.053836,7.8822773 14.808152,8.4737406 14.808152,9.1653081 L14.698957,23.8519431 L14.917346,23.8519431 C16.919252,21.6316477 18.921127,19.3931866 20.923033,17.1364929 C23.10693,14.6250111 24.945016,12.2045614 26.437346,9.8750711 C26.437346,8.9651139 26.091567,8.2007614 25.4,7.5819905 C24.708433,6.9632197 23.889483,6.6538389 22.943128,6.6538389 L24.854028,1.1941232 L40.523412,1.1941232 L38.557915,6.6538389 C38.01194,6.6538389 37.493273,6.8995236 37.001896,7.3909005 C36.510519,7.8822773 36.264834,8.4737406 36.264834,9.1653081 C36.264834,9.9660704 36.237536,11.5493721 36.182938,13.9152607 C36.128341,16.2811493 36.082844,18.2102295 36.046445,19.7025592 C36.046445,21.194889 36.064644,22.9419805 36.101043,24.9438863 C36.137441,26.945792 36.192038,29.0750598 36.264834,31.3317536 C36.264834,32.2053124 36.546917,32.8422729 37.11109,33.242654 C37.675263,33.6430352 38.37592,33.8432227 39.213081,33.8432227 L40.523412,33.8432227 L38.44872,39.521327 L22.069573,39.521327 L24.144265,33.8432227 C24.908629,33.8432227 25.481894,33.6066374 25.864076,33.1334597 C26.246258,32.660282 26.437346,32.0597193 26.437346,31.3317536 L26.54654,16.9181043 L26.328152,16.9181043 C24.435441,18.9564083 22.506361,21.2130682 20.540853,23.6881517 C18.575346,26.1632351 16.664464,28.7110769 14.808152,31.3317536 C14.808152,32.2053124 15.090234,32.8422729 15.654408,33.242654 C16.218581,33.6430352 16.919238,33.8432227 17.756398,33.8432227 L19.06673,33.8432227 L16.992038,39.521327 Z M70.005877,39.521327 L54.281896,39.521327 L56.247393,34.0616114 C56.793368,34.0616114 57.312035,33.8159266 57.803412,33.3245498 C58.294789,32.8331729 58.540474,32.2417096 58.540474,31.5501422 C58.540474,30.9313713 58.140099,29.6847487 57.339336,27.810237 C56.538574,25.9357252 55.48304,23.8155569 54.172701,21.4496682 C53.408337,23.451574 52.698581,25.3988531 52.043412,27.291564 C51.388243,29.1842749 51.060664,30.3672014 51.060664,30.8403791 C51.060664,31.7503363 51.406442,32.5146888 52.098009,33.1334597 C52.789577,33.7522306 53.608526,34.0616114 54.554882,34.0616114 L52.643981,39.521327 L41.615355,39.521327 L41.396967,39.3029384 C42.161331,37.7014138 43.708235,33.961546 46.037725,28.0832227 C48.367215,22.2048995 50.496483,16.6633436 52.425592,11.4583886 L59.96,10.5848341 C62.107499,16.5177548 63.909187,21.1948644 65.365118,24.6163033 C66.202279,26.5454125 67.14862,28.5836859 68.204171,30.7311848 C68.932136,32.150718 69.550898,33.0424626 70.060474,33.4064455 C70.57005,33.7704284 71.188812,33.9524171 71.916777,33.9524171 L70.005877,39.521327 Z M90.043033,40.3948815 C85.966425,40.3948815 82.945413,39.7397222 80.979905,38.4293839 C79.232787,37.2646387 78.06806,35.408354 77.485687,32.8604739 C77.048908,30.967763 76.830521,28.1287393 76.830521,24.3433175 L76.830521,21.2858768 C76.830521,20.1939282 76.539339,19.3021836 75.956967,18.6106161 C75.374594,17.9190487 74.664838,17.5732701 73.827678,17.5732701 L72.462749,17.5732701 L74.373649,12.5503318 C76.011572,12.5503318 77.895155,12.3865419 80.024455,12.0589573 C82.153755,11.7313728 84.073736,11.3491965 85.784455,10.9124171 L86.002844,11.1308057 L85.784455,18.8836019 L91.298768,18.8836019 C95.812155,18.8836019 99.051554,19.8299431 101.017062,21.722654 C102.764179,23.3969752 103.637725,25.8902204 103.637725,29.2024645 C103.637725,32.3691154 102.382003,35.0261504 99.870521,37.1736493 C97.35904,39.3211482 94.083243,40.3948815 90.043033,40.3948815 Z M85.784455,24.3433175 L85.784455,28.9840758 C85.784455,30.2580158 86.112035,31.3681469 86.767204,32.3145024 C87.422373,33.2608578 88.150328,33.7340284 88.95109,33.7340284 C90.843801,33.7340284 92.117722,33.3154544 92.772891,32.4782938 C93.318865,31.7867264 93.591848,30.5310044 93.591848,28.71109 C93.591848,26.8911757 93.045882,25.6536526 91.953934,24.9984834 C91.225968,24.561704 90.006644,24.3433175 88.295924,24.3433175 L85.784455,24.3433175 Z M118.051374,25.8174408 L112.100284,25.8174408 C109.22482,25.9630339 107.29574,26.0358294 106.312986,26.0358294 L106.149194,25.8174408 L108.060095,20.3577251 L114.065782,20.3577251 C115.012137,20.3577251 116.222362,20.3213274 117.696493,20.2485308 C119.170623,20.1757342 119.925877,20.1393365 119.962275,20.1393365 L120.180664,20.3577251 L118.051374,25.8174408 Z M147.588436,39.521327 L132.246635,39.521327 C131.154686,39.6305219 130.235644,40.1127919 129.489479,40.9681517 C128.743314,41.8235114 128.370237,42.8699464 128.370237,44.1074882 L128.370237,45.5270142 L122.255355,47.7109005 L121.818578,47.7109005 L121.818578,33.8432227 L124.002464,33.8432227 C125.749582,29.5846233 127.842452,24.0885645 130.281137,17.3548815 C132.719823,10.6211986 134.557909,5.234333 135.79545,1.1941232 C136.923797,1.1941232 138.143121,1.1213277 139.45346,0.9757346 C140.763798,0.8301415 141.983122,0.611755 143.111469,0.3205687 L143.712038,0.3205687 C144.767588,3.8876008 145.713929,6.8904143 146.55109,9.3290995 C148.007021,13.6604956 149.444732,17.6460482 150.864265,21.2858768 C152.611383,25.762866 154.43127,29.9486061 156.323981,33.8432227 L158.507867,33.8432227 L158.507867,45.5270142 L152.392986,47.7109005 L151.956209,47.7109005 L151.956209,43.2339336 C151.956209,42.2147816 151.528535,41.3412359 150.673175,40.6132701 C149.817816,39.8853044 148.789579,39.521327 147.588436,39.521327 Z M130.717915,33.8432227 L143.985024,33.8432227 C143.439049,31.2953427 142.6201,28.310728 141.528152,24.8892891 C140.436203,21.4678502 139.144083,17.846275 137.651754,14.024455 C136.377814,17.336699 135.267682,20.3213137 134.321327,22.9783886 C133.047387,26.581819 131.846262,30.2033941 130.717915,33.8432227 Z M187.771943,23.797346 C187.771943,25.2168791 187.699148,26.1814193 187.553555,26.6909953 C186.206818,26.6909953 183.331396,26.6454981 178.927204,26.5545024 C174.523011,26.4635067 171.720385,26.4180095 170.519242,26.4180095 C170.519242,28.0195341 171.238097,29.4026482 172.675829,30.5673934 C174.113562,31.7321385 175.851554,32.3145024 177.889858,32.3145024 C179.818967,32.3145024 181.465965,32.2144086 182.8309,32.014218 C184.195836,31.8140274 185.478857,31.4955472 186.68,31.0587678 L186.898389,31.2771564 L184.332322,38.811564 C183.640755,39.4303348 182.603419,39.8489089 181.220284,40.0672986 C179.837149,40.2856883 177.817075,40.3948815 175.16,40.3948815 C170.391825,40.3948815 166.697454,38.920773 164.076777,35.9725118 C161.67449,33.2426404 160.473365,29.7120596 160.473365,25.3806635 C160.473365,21.4496486 161.783684,18.1192554 164.40436,15.3893839 C167.279825,12.4047244 171.046991,10.9124171 175.705972,10.9124171 C179.382198,10.9124171 182.312217,12.1408408 184.496114,14.5977251 C186.680011,17.0546094 187.771943,20.1211191 187.771943,23.797346 Z M175.323791,20.9582938 L177.125498,20.9582938 C177.48948,20.9582938 177.771563,20.7581063 177.971754,20.3577251 C178.171944,19.957344 178.272038,19.5751677 178.272038,19.2111848 C178.272038,18.2284311 177.989955,17.5095757 177.425782,17.0545972 C176.861609,16.5996186 176.069958,16.3721327 175.050806,16.3721327 C174.54123,16.3721327 174.022562,16.4631271 173.494787,16.6451185 C172.967012,16.8271099 172.584835,17.0272975 172.348246,17.2456872 C172.111658,17.4640769 171.820476,17.9008498 171.474692,18.556019 C171.128908,19.2111881 170.883223,19.8845463 170.73763,20.5761137 C171.720384,20.6853086 172.621228,20.776303 173.44019,20.8490995 C174.259151,20.9218961 174.887012,20.9582938 175.323791,20.9582938 Z M223.096303,39.521327 L207.481517,39.521327 L209.556209,33.8432227 C210.320573,33.8432227 210.893837,33.6066374 211.276019,33.1334597 C211.658201,32.660282 211.849289,32.0597193 211.849289,31.3317536 L211.958483,27.1823697 L203.168341,27.1823697 L203.168341,31.3317536 C203.168341,32.2053124 203.450424,32.8422729 204.014597,33.242654 C204.578771,33.6430352 205.279427,33.8432227 206.116588,33.8432227 L207.426919,33.8432227 L205.352227,39.521327 L189.737441,39.521327 L191.812133,33.8432227 C192.576497,33.8432227 193.149761,33.6066374 193.531943,33.1334597 C193.914125,32.660282 194.105213,32.0597193 194.105213,31.3317536 L194.214408,26.4726066 L194.105213,21.2858768 C194.105213,20.2667248 193.814031,19.393179 193.231659,18.6652133 C192.649286,17.9372475 191.93953,17.5732701 191.10237,17.5732701 L189.737441,17.5732701 L191.648341,12.5503318 C193.359061,12.5503318 195.333638,12.3774425 197.572133,12.0316588 C199.810627,11.685875 201.603216,11.3127982 202.949953,10.9124171 L203.168341,11.1308057 L203.168341,21.722654 L211.958483,21.722654 C211.958483,20.5943072 211.658202,19.6206676 211.05763,18.8017062 C210.457059,17.9827447 209.720004,17.5732701 208.846445,17.5732701 L207.481517,17.5732701 L209.392417,12.5503318 C211.103137,12.5503318 213.077714,12.3774425 215.316209,12.0316588 C217.554703,11.685875 219.347292,11.3127982 220.694028,10.9124171 L220.912417,11.1308057 L220.912417,31.3317536 C220.912417,32.2053124 221.1945,32.8422729 221.758673,33.242654 C222.322846,33.6430352 223.023503,33.8432227 223.860664,33.8432227 L225.170995,33.8432227 L223.096303,39.521327 Z M241.222559,39.521327 L226.918104,39.521327 L228.992796,33.8432227 C229.75716,33.8432227 230.330425,33.6066374 230.712607,33.1334597 C231.094789,32.660282 231.285877,32.0597193 231.285877,31.3317536 L231.395071,26.4726066 L231.285877,21.2858768 C231.285877,20.2667248 230.994695,19.393179 230.412322,18.6652133 C229.82995,17.9372475 229.120194,17.5732701 228.283033,17.5732701 L226.918104,17.5732701 L228.829005,12.5503318 C230.539724,12.5503318 232.432407,12.3774425 234.507109,12.0316588 C236.581811,11.685875 238.310704,11.3127982 239.693839,10.9124171 L239.912227,11.1308057 L240.130616,14.1336493 L240.349005,14.3520379 C241.186165,13.5148773 242.414589,12.7323259 244.034313,12.0043602 C245.654037,11.2763945 247.155443,10.9124171 248.538578,10.9124171 C249.77612,10.9124171 251.113737,11.203599 252.551469,11.7859716 C253.989202,12.3683441 255.14483,13.0962989 256.018389,13.9698578 C257.583515,12.8415109 258.639049,12.1499539 259.185024,11.8951659 C260.640955,11.2399967 262.551837,10.9124171 264.917725,10.9124171 C267.101622,10.9124171 268.848714,11.7495651 270.159052,13.4238863 C271.46939,15.0982074 272.12455,17.1910775 272.12455,19.7025592 L272.015355,31.3317536 C272.015355,32.0597193 272.288339,32.660282 272.834313,33.1334597 C273.380287,33.6066374 274.090043,33.8432227 274.963602,33.8432227 L272.88891,39.521327 L258.693649,39.521327 L260.768341,33.8432227 C261.532705,33.8432227 262.10597,33.6066374 262.488152,33.1334597 C262.870334,32.660282 263.061422,32.0597193 263.061422,31.3317536 L263.061422,21.6680569 C263.061422,20.6489049 262.797538,19.8026574 262.269763,19.1292891 C261.741988,18.4559208 261.05953,18.1192417 260.22237,18.1192417 C259.348811,18.1192417 258.493464,18.4741197 257.656303,19.1838863 C256.819143,19.8936528 256.400569,20.7399003 256.400569,21.722654 L256.18218,31.3317536 C256.18218,32.0597193 256.455163,32.660282 257.001137,33.1334597 C257.547112,33.6066374 258.256868,33.8432227 259.130427,33.8432227 L257.055735,39.521327 L242.860474,39.521327 L244.935166,33.8432227 C245.69953,33.8432227 246.272794,33.6066374 246.654976,33.1334597 C247.037158,32.660282 247.228246,32.0597193 247.228246,31.3317536 L247.228246,21.7772512 C247.228246,20.6853026 246.964363,19.8026574 246.436588,19.1292891 C245.908813,18.4559208 245.171758,18.1192417 244.225403,18.1192417 C243.169853,18.1192417 242.296307,18.4650202 241.604739,19.1565877 C240.913172,19.8481551 240.567393,20.7398998 240.567393,21.8318483 L240.349005,31.3317536 C240.349005,32.023321 240.631087,32.6147843 241.195261,33.1061611 C241.759434,33.597538 242.460091,33.8432227 243.297251,33.8432227 L241.222559,39.521327 Z" id="path-3"></path>
                </g>
                <g id="path-3-link" fill="url(#linearGradient-1)">
                    <path d="M16.992038,39.521327 L0.612891,39.521327 L2.687583,33.8432227 C3.451947,33.8432227 4.025211,33.6066374 4.407393,33.1334597 C4.789575,32.660282 4.980664,32.0597193 4.980664,31.3317536 C4.980664,30.494593 5.007962,28.7747997 5.062559,26.1723223 C5.117157,23.5698448 5.162654,21.4132787 5.199052,19.7025592 C5.199052,18.4286192 5.171754,16.9454113 5.117156,15.252891 C5.062559,13.5603707 5.017062,11.767782 4.980664,9.8750711 C4.980664,8.9651139 4.634885,8.2007614 3.943318,7.5819905 C3.25175,6.9632197 2.432801,6.6538389 1.486445,6.6538389 L3.397346,1.1941232 L19.06673,1.1941232 L17.101232,6.6538389 C16.555258,6.6538389 16.03659,6.8995236 15.545213,7.3909005 C15.053836,7.8822773 14.808152,8.4737406 14.808152,9.1653081 L14.698957,23.8519431 L14.917346,23.8519431 C16.919252,21.6316477 18.921127,19.3931866 20.923033,17.1364929 C23.10693,14.6250111 24.945016,12.2045614 26.437346,9.8750711 C26.437346,8.9651139 26.091567,8.2007614 25.4,7.5819905 C24.708433,6.9632197 23.889483,6.6538389 22.943128,6.6538389 L24.854028,1.1941232 L40.523412,1.1941232 L38.557915,6.6538389 C38.01194,6.6538389 37.493273,6.8995236 37.001896,7.3909005 C36.510519,7.8822773 36.264834,8.4737406 36.264834,9.1653081 C36.264834,9.9660704 36.237536,11.5493721 36.182938,13.9152607 C36.128341,16.2811493 36.082844,18.2102295 36.046445,19.7025592 C36.046445,21.194889 36.064644,22.9419805 36.101043,24.9438863 C36.137441,26.945792 36.192038,29.0750598 36.264834,31.3317536 C36.264834,32.2053124 36.546917,32.8422729 37.11109,33.242654 C37.675263,33.6430352 38.37592,33.8432227 39.213081,33.8432227 L40.523412,33.8432227 L38.44872,39.521327 L22.069573,39.521327 L24.144265,33.8432227 C24.908629,33.8432227 25.481894,33.6066374 25.864076,33.1334597 C26.246258,32.660282 26.437346,32.0597193 26.437346,31.3317536 L26.54654,16.9181043 L26.328152,16.9181043 C24.435441,18.9564083 22.506361,21.2130682 20.540853,23.6881517 C18.575346,26.1632351 16.664464,28.7110769 14.808152,31.3317536 C14.808152,32.2053124 15.090234,32.8422729 15.654408,33.242654 C16.218581,33.6430352 16.919238,33.8432227 17.756398,33.8432227 L19.06673,33.8432227 L16.992038,39.521327 Z M70.005877,39.521327 L54.281896,39.521327 L56.247393,34.0616114 C56.793368,34.0616114 57.312035,33.8159266 57.803412,33.3245498 C58.294789,32.8331729 58.540474,32.2417096 58.540474,31.5501422 C58.540474,30.9313713 58.140099,29.6847487 57.339336,27.810237 C56.538574,25.9357252 55.48304,23.8155569 54.172701,21.4496682 C53.408337,23.451574 52.698581,25.3988531 52.043412,27.291564 C51.388243,29.1842749 51.060664,30.3672014 51.060664,30.8403791 C51.060664,31.7503363 51.406442,32.5146888 52.098009,33.1334597 C52.789577,33.7522306 53.608526,34.0616114 54.554882,34.0616114 L52.643981,39.521327 L41.615355,39.521327 L41.396967,39.3029384 C42.161331,37.7014138 43.708235,33.961546 46.037725,28.0832227 C48.367215,22.2048995 50.496483,16.6633436 52.425592,11.4583886 L59.96,10.5848341 C62.107499,16.5177548 63.909187,21.1948644 65.365118,24.6163033 C66.202279,26.5454125 67.14862,28.5836859 68.204171,30.7311848 C68.932136,32.150718 69.550898,33.0424626 70.060474,33.4064455 C70.57005,33.7704284 71.188812,33.9524171 71.916777,33.9524171 L70.005877,39.521327 Z M90.043033,40.3948815 C85.966425,40.3948815 82.945413,39.7397222 80.979905,38.4293839 C79.232787,37.2646387 78.06806,35.408354 77.485687,32.8604739 C77.048908,30.967763 76.830521,28.1287393 76.830521,24.3433175 L76.830521,21.2858768 C76.830521,20.1939282 76.539339,19.3021836 75.956967,18.6106161 C75.374594,17.9190487 74.664838,17.5732701 73.827678,17.5732701 L72.462749,17.5732701 L74.373649,12.5503318 C76.011572,12.5503318 77.895155,12.3865419 80.024455,12.0589573 C82.153755,11.7313728 84.073736,11.3491965 85.784455,10.9124171 L86.002844,11.1308057 L85.784455,18.8836019 L91.298768,18.8836019 C95.812155,18.8836019 99.051554,19.8299431 101.017062,21.722654 C102.764179,23.3969752 103.637725,25.8902204 103.637725,29.2024645 C103.637725,32.3691154 102.382003,35.0261504 99.870521,37.1736493 C97.35904,39.3211482 94.083243,40.3948815 90.043033,40.3948815 Z M85.784455,24.3433175 L85.784455,28.9840758 C85.784455,30.2580158 86.112035,31.3681469 86.767204,32.3145024 C87.422373,33.2608578 88.150328,33.7340284 88.95109,33.7340284 C90.843801,33.7340284 92.117722,33.3154544 92.772891,32.4782938 C93.318865,31.7867264 93.591848,30.5310044 93.591848,28.71109 C93.591848,26.8911757 93.045882,25.6536526 91.953934,24.9984834 C91.225968,24.561704 90.006644,24.3433175 88.295924,24.3433175 L85.784455,24.3433175 Z M118.051374,25.8174408 L112.100284,25.8174408 C109.22482,25.9630339 107.29574,26.0358294 106.312986,26.0358294 L106.149194,25.8174408 L108.060095,20.3577251 L114.065782,20.3577251 C115.012137,20.3577251 116.222362,20.3213274 117.696493,20.2485308 C119.170623,20.1757342 119.925877,20.1393365 119.962275,20.1393365 L120.180664,20.3577251 L118.051374,25.8174408 Z M147.588436,39.521327 L132.246635,39.521327 C131.154686,39.6305219 130.235644,40.1127919 129.489479,40.9681517 C128.743314,41.8235114 128.370237,42.8699464 128.370237,44.1074882 L128.370237,45.5270142 L122.255355,47.7109005 L121.818578,47.7109005 L121.818578,33.8432227 L124.002464,33.8432227 C125.749582,29.5846233 127.842452,24.0885645 130.281137,17.3548815 C132.719823,10.6211986 134.557909,5.234333 135.79545,1.1941232 C136.923797,1.1941232 138.143121,1.1213277 139.45346,0.9757346 C140.763798,0.8301415 141.983122,0.611755 143.111469,0.3205687 L143.712038,0.3205687 C144.767588,3.8876008 145.713929,6.8904143 146.55109,9.3290995 C148.007021,13.6604956 149.444732,17.6460482 150.864265,21.2858768 C152.611383,25.762866 154.43127,29.9486061 156.323981,33.8432227 L158.507867,33.8432227 L158.507867,45.5270142 L152.392986,47.7109005 L151.956209,47.7109005 L151.956209,43.2339336 C151.956209,42.2147816 151.528535,41.3412359 150.673175,40.6132701 C149.817816,39.8853044 148.789579,39.521327 147.588436,39.521327 Z M130.717915,33.8432227 L143.985024,33.8432227 C143.439049,31.2953427 142.6201,28.310728 141.528152,24.8892891 C140.436203,21.4678502 139.144083,17.846275 137.651754,14.024455 C136.377814,17.336699 135.267682,20.3213137 134.321327,22.9783886 C133.047387,26.581819 131.846262,30.2033941 130.717915,33.8432227 Z M187.771943,23.797346 C187.771943,25.2168791 187.699148,26.1814193 187.553555,26.6909953 C186.206818,26.6909953 183.331396,26.6454981 178.927204,26.5545024 C174.523011,26.4635067 171.720385,26.4180095 170.519242,26.4180095 C170.519242,28.0195341 171.238097,29.4026482 172.675829,30.5673934 C174.113562,31.7321385 175.851554,32.3145024 177.889858,32.3145024 C179.818967,32.3145024 181.465965,32.2144086 182.8309,32.014218 C184.195836,31.8140274 185.478857,31.4955472 186.68,31.0587678 L186.898389,31.2771564 L184.332322,38.811564 C183.640755,39.4303348 182.603419,39.8489089 181.220284,40.0672986 C179.837149,40.2856883 177.817075,40.3948815 175.16,40.3948815 C170.391825,40.3948815 166.697454,38.920773 164.076777,35.9725118 C161.67449,33.2426404 160.473365,29.7120596 160.473365,25.3806635 C160.473365,21.4496486 161.783684,18.1192554 164.40436,15.3893839 C167.279825,12.4047244 171.046991,10.9124171 175.705972,10.9124171 C179.382198,10.9124171 182.312217,12.1408408 184.496114,14.5977251 C186.680011,17.0546094 187.771943,20.1211191 187.771943,23.797346 Z M175.323791,20.9582938 L177.125498,20.9582938 C177.48948,20.9582938 177.771563,20.7581063 177.971754,20.3577251 C178.171944,19.957344 178.272038,19.5751677 178.272038,19.2111848 C178.272038,18.2284311 177.989955,17.5095757 177.425782,17.0545972 C176.861609,16.5996186 176.069958,16.3721327 175.050806,16.3721327 C174.54123,16.3721327 174.022562,16.4631271 173.494787,16.6451185 C172.967012,16.8271099 172.584835,17.0272975 172.348246,17.2456872 C172.111658,17.4640769 171.820476,17.9008498 171.474692,18.556019 C171.128908,19.2111881 170.883223,19.8845463 170.73763,20.5761137 C171.720384,20.6853086 172.621228,20.776303 173.44019,20.8490995 C174.259151,20.9218961 174.887012,20.9582938 175.323791,20.9582938 Z M223.096303,39.521327 L207.481517,39.521327 L209.556209,33.8432227 C210.320573,33.8432227 210.893837,33.6066374 211.276019,33.1334597 C211.658201,32.660282 211.849289,32.0597193 211.849289,31.3317536 L211.958483,27.1823697 L203.168341,27.1823697 L203.168341,31.3317536 C203.168341,32.2053124 203.450424,32.8422729 204.014597,33.242654 C204.578771,33.6430352 205.279427,33.8432227 206.116588,33.8432227 L207.426919,33.8432227 L205.352227,39.521327 L189.737441,39.521327 L191.812133,33.8432227 C192.576497,33.8432227 193.149761,33.6066374 193.531943,33.1334597 C193.914125,32.660282 194.105213,32.0597193 194.105213,31.3317536 L194.214408,26.4726066 L194.105213,21.2858768 C194.105213,20.2667248 193.814031,19.393179 193.231659,18.6652133 C192.649286,17.9372475 191.93953,17.5732701 191.10237,17.5732701 L189.737441,17.5732701 L191.648341,12.5503318 C193.359061,12.5503318 195.333638,12.3774425 197.572133,12.0316588 C199.810627,11.685875 201.603216,11.3127982 202.949953,10.9124171 L203.168341,11.1308057 L203.168341,21.722654 L211.958483,21.722654 C211.958483,20.5943072 211.658202,19.6206676 211.05763,18.8017062 C210.457059,17.9827447 209.720004,17.5732701 208.846445,17.5732701 L207.481517,17.5732701 L209.392417,12.5503318 C211.103137,12.5503318 213.077714,12.3774425 215.316209,12.0316588 C217.554703,11.685875 219.347292,11.3127982 220.694028,10.9124171 L220.912417,11.1308057 L220.912417,31.3317536 C220.912417,32.2053124 221.1945,32.8422729 221.758673,33.242654 C222.322846,33.6430352 223.023503,33.8432227 223.860664,33.8432227 L225.170995,33.8432227 L223.096303,39.521327 Z M241.222559,39.521327 L226.918104,39.521327 L228.992796,33.8432227 C229.75716,33.8432227 230.330425,33.6066374 230.712607,33.1334597 C231.094789,32.660282 231.285877,32.0597193 231.285877,31.3317536 L231.395071,26.4726066 L231.285877,21.2858768 C231.285877,20.2667248 230.994695,19.393179 230.412322,18.6652133 C229.82995,17.9372475 229.120194,17.5732701 228.283033,17.5732701 L226.918104,17.5732701 L228.829005,12.5503318 C230.539724,12.5503318 232.432407,12.3774425 234.507109,12.0316588 C236.581811,11.685875 238.310704,11.3127982 239.693839,10.9124171 L239.912227,11.1308057 L240.130616,14.1336493 L240.349005,14.3520379 C241.186165,13.5148773 242.414589,12.7323259 244.034313,12.0043602 C245.654037,11.2763945 247.155443,10.9124171 248.538578,10.9124171 C249.77612,10.9124171 251.113737,11.203599 252.551469,11.7859716 C253.989202,12.3683441 255.14483,13.0962989 256.018389,13.9698578 C257.583515,12.8415109 258.639049,12.1499539 259.185024,11.8951659 C260.640955,11.2399967 262.551837,10.9124171 264.917725,10.9124171 C267.101622,10.9124171 268.848714,11.7495651 270.159052,13.4238863 C271.46939,15.0982074 272.12455,17.1910775 272.12455,19.7025592 L272.015355,31.3317536 C272.015355,32.0597193 272.288339,32.660282 272.834313,33.1334597 C273.380287,33.6066374 274.090043,33.8432227 274.963602,33.8432227 L272.88891,39.521327 L258.693649,39.521327 L260.768341,33.8432227 C261.532705,33.8432227 262.10597,33.6066374 262.488152,33.1334597 C262.870334,32.660282 263.061422,32.0597193 263.061422,31.3317536 L263.061422,21.6680569 C263.061422,20.6489049 262.797538,19.8026574 262.269763,19.1292891 C261.741988,18.4559208 261.05953,18.1192417 260.22237,18.1192417 C259.348811,18.1192417 258.493464,18.4741197 257.656303,19.1838863 C256.819143,19.8936528 256.400569,20.7399003 256.400569,21.722654 L256.18218,31.3317536 C256.18218,32.0597193 256.455163,32.660282 257.001137,33.1334597 C257.547112,33.6066374 258.256868,33.8432227 259.130427,33.8432227 L257.055735,39.521327 L242.860474,39.521327 L244.935166,33.8432227 C245.69953,33.8432227 246.272794,33.6066374 246.654976,33.1334597 C247.037158,32.660282 247.228246,32.0597193 247.228246,31.3317536 L247.228246,21.7772512 C247.228246,20.6853026 246.964363,19.8026574 246.436588,19.1292891 C245.908813,18.4559208 245.171758,18.1192417 244.225403,18.1192417 C243.169853,18.1192417 242.296307,18.4650202 241.604739,19.1565877 C240.913172,19.8481551 240.567393,20.7398998 240.567393,21.8318483 L240.349005,31.3317536 C240.349005,32.023321 240.631087,32.6147843 241.195261,33.1061611 C241.759434,33.597538 242.460091,33.8432227 243.297251,33.8432227 L241.222559,39.521327 Z" id="path-3"></path>
                </g>
            </g>
        </g>
    </g>
</svg>