<?xml version="1.0" encoding="UTF-8"?>
<svg width="97px" height="97px" viewBox="0 0 97 97" version="1.1" xmlns="http://www.w3.org/2000/svg" xmlns:xlink="http://www.w3.org/1999/xlink">
    <!-- Generator: Sketch 48.1 (47250) - http://www.bohemiancoding.com/sketch -->
    <title>Group</title>
    <desc>Created with Sketch.</desc>
    <defs></defs>
    <g id="Page-1" stroke="none" stroke-width="1" fill="none" fill-rule="evenodd">
        <g id="Group" transform="translate(-1.000000, -1.000000)">
            <rect id="Rectangle" fill="#20A2E8" transform="translate(49.497475, 49.497475) rotate(45.000000) translate(-49.497475, -49.497475) " x="14.4974747" y="14.4974747" width="70" height="70" rx="3"></rect>
            <g id="multiple-users-silhouette" transform="translate(27.000000, 30.000000)" fill="#FFFFFF" fill-rule="nonzero">
                <path d="M26.5521028,6.52220723 C28.5865469,7.83126956 30.0131287,10.0464758 30.2728566,12.6178281 C31.1025583,13.0156748 32.023412,13.2444649 32.9997254,13.2444649 C36.5639835,13.2444649 39.4528391,10.279774 39.4528391,6.6225142 C39.4528391,2.96469088 36.5639835,0 32.9997254,0 C29.469512,0.00112704462 26.6059154,2.91284683 26.5521028,6.52220723 Z M22.3245227,20.0816811 C25.8887807,20.0816811 28.7776363,17.1164267 28.7776363,13.4591669 C28.7776363,9.80190708 25.8882316,6.8372162 22.3245227,6.8372162 C18.7608137,6.8372162 15.8703107,9.8024706 15.8703107,13.4597304 C15.8703107,17.1169902 18.7608137,20.0816811 22.3245227,20.0816811 Z M25.0618245,20.5330624 L19.5861226,20.5330624 C15.030176,20.5330624 11.323699,24.3374016 11.323699,29.0129462 L11.323699,35.8851008 L11.3407213,35.9927335 L11.8019718,36.1409399 C16.1498066,37.5350941 19.9271184,38 23.0361662,38 C29.1087483,38 32.6285286,36.2232142 32.8454262,36.1099462 L33.2764757,35.8862278 L33.3226008,35.8862278 L33.3226008,29.0129462 C33.3242481,24.3374016 29.6177711,20.5330624 25.0618245,20.5330624 Z M35.7381255,13.6964098 L30.3047049,13.6964098 C30.2459503,15.9273946 29.3179583,17.9363516 27.8501934,19.3812228 C31.8998627,20.6170273 34.8628479,24.4709564 34.8628479,29.0230896 L34.8628479,31.1408064 C40.2276301,30.9390654 43.3191065,29.3786722 43.5228254,29.273857 L43.953875,29.0495751 L44,29.0495751 L44,22.1751665 C44,17.5001854 40.293523,13.6964098 35.7381255,13.6964098 Z M11.0013728,13.2455919 C12.2637714,13.2455919 13.4383127,12.8674685 14.4332959,12.2233624 C14.7495819,10.1062091 15.8554848,8.25616538 17.4352677,6.99612949 C17.441857,6.87215458 17.4533882,6.74930672 17.4533882,6.62420477 C17.4533882,2.96638145 14.5639835,0.00169056693 11.0013728,0.00169056693 C7.43656558,0.00169056693 4.54825908,2.96638145 4.54825908,6.62420477 C4.54825908,10.2803375 7.43656558,13.2455919 11.0013728,13.2455919 Z M16.7966554,19.3812228 C15.336029,17.9436774 14.4113316,15.9454273 14.3437913,13.727967 C14.1422688,13.7127519 13.9429427,13.6964098 13.7375764,13.6964098 L8.26242356,13.6964098 C3.70647697,13.6964098 0,17.5001854 0,22.1751665 L0,29.0484481 L0.0170223387,29.1543903 L0.478272807,29.3037237 C3.96620492,30.4211884 7.07909647,30.9362478 9.78290278,31.0985423 L9.78290278,29.0230896 C9.784001,24.4709564 12.7458879,20.6181543 16.7966554,19.3812228 Z" id="Shape"></path>
            </g>
        </g>
    </g>
</svg>