<?xml version="1.0" encoding="UTF-8"?>
<svg width="97px" height="97px" viewBox="0 0 97 97" version="1.1" xmlns="http://www.w3.org/2000/svg" xmlns:xlink="http://www.w3.org/1999/xlink">
    <!-- Generator: Sketch 48.1 (47250) - http://www.bohemiancoding.com/sketch -->
    <title>Group 4</title>
    <desc>Created with Sketch.</desc>
    <defs></defs>
    <g id="Page-1" stroke="none" stroke-width="1" fill="none" fill-rule="evenodd">
        <g id="Group-4" transform="translate(-1.000000, -1.000000)">
            <rect id="Rectangle" fill="#20A2E8" transform="translate(49.497475, 49.497475) rotate(45.000000) translate(-49.497475, -49.497475) " x="14.4974747" y="14.4974747" width="70" height="70" rx="3"></rect>
            <g id="wallet-2" transform="translate(30.000000, 30.000000)" fill="#FFFFFF" fill-rule="nonzero">
                <path d="M2.51151414,8 C2.58201461,8 2.65302596,7.97807295 2.72148294,7.9303033 C2.98713689,7.74627269 3.26862791,7.62097526 3.55880377,7.55989276 C3.8382513,7.50115958 4.03391565,7.10647266 3.99508931,6.67732895 C3.95677383,6.24896834 3.70440257,5.94433895 3.41933544,6.00855388 C3.03209372,6.09078032 2.65506945,6.25679943 2.30052359,6.50347875 C2.04355448,6.6820276 1.92911893,7.14562811 2.04559797,7.53953192 C2.13091376,7.82849913 2.31687153,8 2.51151414,8 Z" id="Shape"></path>
                <path d="M6.5,8 L7.5,8 C7.7765,8 8,7.553 8,7 C8,6.447 7.7765,6 7.5,6 L6.5,6 C6.2235,6 6,6.447 6,7 C6,7.553 6.224,8 6.5,8 Z" id="Shape"></path>
                <path d="M27.1966,3.6617887 L23.7538,0.205075429 C23.4814667,-0.0683584762 23.0064667,-0.0683584762 22.7347667,0.205075429 L21.4389667,1.50674799 L20.1431667,0.205711321 C19.8708333,-0.0677225834 19.3958333,-0.0677225834 19.1241333,0.205711321 L15.6813333,3.6617887 L5.06666667,3.6617887 C2.27303333,3.6617887 0,5.94400797 0,8.74893111 L0,11.2925023 C0,11.027335 0.1615,10.8009572 0.390766667,10.7055733 C0.629533333,11.2791486 0.9728,11.7967653 1.39206667,12.2412544 C1.40283333,12.2825874 1.40726667,12.3258281 1.4193,12.3665253 C1.5181,12.7035484 1.3262,13.0571048 0.990533333,13.1556682 C0.930366667,13.1734732 0.870833333,13.1817398 0.811933333,13.1817398 C0.5377,13.1817398 0.285633333,13.0024181 0.204566667,12.7251688 C0.0684,12.261603 0,11.7802321 0,11.2925023 L0,30.3692864 C0,30.0176377 0.2831,29.7333936 0.633333333,29.7333936 C0.983566667,29.7333936 1.26666667,30.0176377 1.26666667,30.3692864 C1.26666667,30.7349247 1.31796667,31.0967477 1.4193,31.4433093 C1.5181,31.7803325 1.3262,32.1338889 0.990533333,32.2324523 C0.930366667,32.2502573 0.870833333,32.2585239 0.811933333,32.2585239 C0.5377,32.2585239 0.285633333,32.0792021 0.204566667,31.8019529 C0.0684,31.338387 0,30.8570162 0,30.3692864 L0,33.4520947 C0,35.95942 2.03236667,38 4.5296,38 L38,38 L38,34.820536 C38,35.1721847 37.7169,35.4564288 37.3666667,35.4564288 L36.1,35.4564288 C35.7497667,35.4564288 35.4666667,35.1721847 35.4666667,34.820536 C35.4666667,34.4688873 35.7497667,34.1846432 36.1,34.1846432 L37.3666667,34.1846432 C37.7169,34.1846432 38,34.4688873 38,34.820536 L38,30.6872328 L29.7666667,30.6872328 C26.4492667,30.6872328 23.75,27.9770577 23.75,24.6462512 C23.75,21.3154447 26.4492667,18.6052695 29.7666667,18.6052695 L38,18.6052695 L38,15.7437519 C38,16.0954007 37.7169,16.3796447 37.3666667,16.3796447 L36.1,16.3796447 C35.7497667,16.3796447 35.4666667,16.0954007 35.4666667,15.7437519 C35.4666667,15.3921032 35.7497667,15.1078591 36.1,15.1078591 L37.3666667,15.1078591 C37.7169,15.1078591 38,15.3921032 38,15.7437519 L38,13.8360735 L38,12.5642879 L38,3.6617887 L27.1966,3.6617887 Z M32.3,34.1846432 L33.5666667,34.1846432 C33.9169,34.1846432 34.2,34.4688873 34.2,34.820536 C34.2,35.1721847 33.9169,35.4564288 33.5666667,35.4564288 L32.3,35.4564288 C31.9497667,35.4564288 31.6666667,35.1721847 31.6666667,34.820536 C31.6666667,34.4688873 31.9497667,34.1846432 32.3,34.1846432 Z M28.5,34.1846432 L29.7666667,34.1846432 C30.1169,34.1846432 30.4,34.4688873 30.4,34.820536 C30.4,35.1721847 30.1169,35.4564288 29.7666667,35.4564288 L28.5,35.4564288 C28.1497667,35.4564288 27.8666667,35.1721847 27.8666667,34.820536 C27.8666667,34.4688873 28.1497667,34.1846432 28.5,34.1846432 Z M24.7,34.1846432 L25.9666667,34.1846432 C26.3169,34.1846432 26.6,34.4688873 26.6,34.820536 C26.6,35.1721847 26.3169,35.4564288 25.9666667,35.4564288 L24.7,35.4564288 C24.3497667,35.4564288 24.0666667,35.1721847 24.0666667,34.820536 C24.0666667,34.4688873 24.3497667,34.1846432 24.7,34.1846432 Z M23.2446,1.49212246 L25.4055333,3.6617887 L34.2722,12.5642879 L30.8579,12.5642879 L23.7221333,5.39904783 C23.5935667,5.27377695 23.4238333,5.20446464 23.2446,5.20446464 L22.9456667,5.21972606 L15.6306667,12.5642879 L12.217,12.5642879 L22.3351333,2.40590042 L23.2446,1.49212246 Z M19.6333333,1.49212246 L20.5434333,2.40590042 L10.4259333,12.5642879 L8.60573333,12.5642879 L17.4724,3.6617887 L19.6333333,1.49212246 Z M5.06666667,4.9335743 L14.4146667,4.9335743 L12.6565333,6.69881272 C12.5906667,6.418384 12.3512667,6.20535991 12.0517,6.20535991 L10.7850333,6.20535991 C10.4348,6.20535991 10.1517,6.48960399 10.1517,6.84125271 C10.1517,7.19290143 10.4348,7.47714551 10.7850333,7.47714551 L11.8807,7.47714551 L6.81403333,12.5642879 L5.06666667,12.5642879 C3.4181,12.5642879 2.01526667,11.5029828 1.49023333,10.0264398 C1.58966667,9.74283156 1.7138,9.46939766 1.8772,9.21885589 C2.0691,8.92507342 1.98676667,8.53081988 1.69353333,8.33878026 C1.5732,8.25992955 1.4364,8.23830919 1.3034,8.24721169 C1.54913333,6.38023043 3.14133333,4.9335743 5.06666667,4.9335743 Z M3.80063333,34.683819 C3.69423333,34.9171917 3.46496667,35.0551804 3.2243,35.0551804 C3.13626667,35.0551804 3.04696667,35.0367395 2.96146667,34.9973142 C2.52256667,34.7957362 2.1147,34.5324766 1.74926667,34.2145302 C1.48516667,33.984337 1.45666667,33.5824527 1.6853,33.3172854 C1.9152,33.0521181 2.31483333,33.0235029 2.57893333,33.2530602 C2.85316667,33.4921559 3.15906667,33.6899186 3.4884,33.8412611 C3.80633333,33.9868805 3.94566667,34.3646009 3.80063333,34.683819 Z M3.80063333,15.607035 C3.69423333,15.8404076 3.46496667,15.9783964 3.2243,15.9783964 C3.13626667,15.9783964 3.04696667,15.9599555 2.96146667,15.9205301 C2.52256667,15.7189521 2.1147,15.4556925 1.74926667,15.1377461 C1.48516667,14.9075529 1.45666667,14.5056686 1.6853,14.2405014 C1.9152,13.9753341 2.31483333,13.9467189 2.57893333,14.1762762 C2.85316667,14.4153719 3.15906667,14.6131345 3.4884,14.764477 C3.80633333,14.9100965 3.94566667,15.2878168 3.80063333,15.607035 Z M6.96666667,35.4564288 L5.7,35.4564288 C5.34976667,35.4564288 5.06666667,35.1721847 5.06666667,34.820536 C5.06666667,34.4688873 5.34976667,34.1846432 5.7,34.1846432 L6.96666667,34.1846432 C7.3169,34.1846432 7.6,34.4688873 7.6,34.820536 C7.6,35.1721847 7.3169,35.4564288 6.96666667,35.4564288 Z M6.96666667,16.3796447 L5.7,16.3796447 C5.34976667,16.3796447 5.06666667,16.0954007 5.06666667,15.7437519 C5.06666667,15.3921032 5.34976667,15.1078591 5.7,15.1078591 L6.96666667,15.1078591 C7.3169,15.1078591 7.6,15.3921032 7.6,15.7437519 C7.6,16.0954007 7.3169,16.3796447 6.96666667,16.3796447 Z M10.7666667,35.4564288 L9.5,35.4564288 C9.14976667,35.4564288 8.86666667,35.1721847 8.86666667,34.820536 C8.86666667,34.4688873 9.14976667,34.1846432 9.5,34.1846432 L10.7666667,34.1846432 C11.1169,34.1846432 11.4,34.4688873 11.4,34.820536 C11.4,35.1721847 11.1169,35.4564288 10.7666667,35.4564288 Z M10.7666667,16.3796447 L9.5,16.3796447 C9.14976667,16.3796447 8.86666667,16.0954007 8.86666667,15.7437519 C8.86666667,15.3921032 9.14976667,15.1078591 9.5,15.1078591 L10.7666667,15.1078591 C11.1169,15.1078591 11.4,15.3921032 11.4,15.7437519 C11.4,16.0954007 11.1169,16.3796447 10.7666667,16.3796447 Z M14.5666667,35.4564288 L13.3,35.4564288 C12.9497667,35.4564288 12.6666667,35.1721847 12.6666667,34.820536 C12.6666667,34.4688873 12.9497667,34.1846432 13.3,34.1846432 L14.5666667,34.1846432 C14.9169,34.1846432 15.2,34.4688873 15.2,34.820536 C15.2,35.1721847 14.9169,35.4564288 14.5666667,35.4564288 Z M14.5666667,16.3796447 L13.3,16.3796447 C12.9497667,16.3796447 12.6666667,16.0954007 12.6666667,15.7437519 C12.6666667,15.3921032 12.9497667,15.1078591 13.3,15.1078591 L14.5666667,15.1078591 C14.9169,15.1078591 15.2,15.3921032 15.2,15.7437519 C15.2,16.0954007 14.9169,16.3796447 14.5666667,16.3796447 Z M18.3666667,35.4564288 L17.1,35.4564288 C16.7497667,35.4564288 16.4666667,35.1721847 16.4666667,34.820536 C16.4666667,34.4688873 16.7497667,34.1846432 17.1,34.1846432 L18.3666667,34.1846432 C18.7169,34.1846432 19,34.4688873 19,34.820536 C19,35.1721847 18.7169,35.4564288 18.3666667,35.4564288 Z M18.3666667,16.3796447 L17.1,16.3796447 C16.7497667,16.3796447 16.4666667,16.0954007 16.4666667,15.7437519 C16.4666667,15.3921032 16.7497667,15.1078591 17.1,15.1078591 L18.3666667,15.1078591 C18.7169,15.1078591 19,15.3921032 19,15.7437519 C19,16.0954007 18.7169,16.3796447 18.3666667,16.3796447 Z M22.1666667,35.4564288 L20.9,35.4564288 C20.5497667,35.4564288 20.2666667,35.1721847 20.2666667,34.820536 C20.2666667,34.4688873 20.5497667,34.1846432 20.9,34.1846432 L22.1666667,34.1846432 C22.5169,34.1846432 22.8,34.4688873 22.8,34.820536 C22.8,35.1721847 22.5169,35.4564288 22.1666667,35.4564288 Z M22.1666667,16.3796447 L20.9,16.3796447 C20.5497667,16.3796447 20.2666667,16.0954007 20.2666667,15.7437519 C20.2666667,15.3921032 20.5497667,15.1078591 20.9,15.1078591 L22.1666667,15.1078591 C22.5169,15.1078591 22.8,15.3921032 22.8,15.7437519 C22.8,16.0954007 22.5169,16.3796447 22.1666667,16.3796447 Z M25.9666667,16.3796447 L24.7,16.3796447 C24.3497667,16.3796447 24.0666667,16.0954007 24.0666667,15.7437519 C24.0666667,15.3921032 24.3497667,15.1078591 24.7,15.1078591 L25.9666667,15.1078591 C26.3169,15.1078591 26.6,15.3921032 26.6,15.7437519 C26.6,16.0954007 26.3169,16.3796447 25.9666667,16.3796447 Z M29.7666667,16.3796447 L28.5,16.3796447 C28.1497667,16.3796447 27.8666667,16.0954007 27.8666667,15.7437519 C27.8666667,15.3921032 28.1497667,15.1078591 28.5,15.1078591 L29.7666667,15.1078591 C30.1169,15.1078591 30.4,15.3921032 30.4,15.7437519 C30.4,16.0954007 30.1169,16.3796447 29.7666667,16.3796447 Z M33.5666667,16.3796447 L32.3,16.3796447 C31.9497667,16.3796447 31.6666667,16.0954007 31.6666667,15.7437519 C31.6666667,15.3921032 31.9497667,15.1078591 32.3,15.1078591 L33.5666667,15.1078591 C33.9169,15.1078591 34.2,15.3921032 34.2,15.7437519 C34.2,16.0954007 33.9169,16.3796447 33.5666667,16.3796447 Z M36.0632667,12.5642879 L30.9966,7.47714551 L31.0333333,7.47714551 C31.3835667,7.47714551 31.6666667,7.19290143 31.6666667,6.84125271 C31.6666667,6.48960399 31.3835667,6.20535991 31.0333333,6.20535991 L29.7666667,6.20535991 C29.7559,6.20535991 29.7470333,6.21108294 29.7362667,6.21171883 L28.4632667,4.9335743 L36.7333333,4.9335743 L36.7333333,12.5642879 L36.0632667,12.5642879 Z" id="Shape"></path>
                <path d="M34.5,6 L33.5,6 C33.2235,6 33,6.447 33,7 C33,7.553 33.2235,8 33.5,8 L34.5,8 C34.7765,8 35,7.553 35,7 C35,6.447 34.7765,6 34.5,6 Z" id="Shape"></path>
                <path d="M26,24.5 C26,26.9807857 27.8846,29 30.2,29 L38,29 L38,20 L30.2,20 C27.8846,20 26,22.0192143 26,24.5 Z M33.2,24.5 C33.2,25.9181429 32.1236,27.0714286 30.8,27.0714286 C29.4764,27.0714286 28.4,25.9181429 28.4,24.5 C28.4,23.0818571 29.4764,21.9285714 30.8,21.9285714 C32.1236,21.9285714 33.2,23.0818571 33.2,24.5 Z" id="Shape"></path>
            </g>
        </g>
    </g>
</svg>