<?xml version="1.0" encoding="UTF-8"?>
<svg width="51px" height="51px" viewBox="0 0 51 51" version="1.1" xmlns="http://www.w3.org/2000/svg" xmlns:xlink="http://www.w3.org/1999/xlink">
    <!-- Generator: Sketch 48.1 (47250) - http://www.bohemiancoding.com/sketch -->
    <title>Group 5</title>
    <desc>Created with Sketch.</desc>
    <defs></defs>
    <g id="Page-1" stroke="none" stroke-width="1" fill="none" fill-rule="evenodd">
        <g id="Group-5" transform="translate(-1.000000, -1.000000)">
            <rect id="Rectangle" fill="#20A2E8" transform="translate(26.483506, 26.483506) rotate(45.000000) translate(-26.483506, -26.483506) " x="7.75683931" y="7.75683931" width="37.4533333" height="37.4533333" rx="3"></rect>
            <g id="right-arrow" transform="translate(14.840000, 16.960000)" fill="#FFFFFF" fill-rule="nonzero">
                <path d="M22.2518858,8.64891134 L14.0854152,0.366205926 C13.8522976,0.129775623 13.5415967,0 13.2103049,0 C12.8786455,0 12.5681284,0.129962083 12.3350108,0.366205926 L11.593557,1.11838246 C11.3606232,1.35443984 11.2322982,1.6697424 11.2322982,2.00592839 C11.2322982,2.34192792 11.3606232,2.66785865 11.593557,2.90391603 L16.3577605,7.74644867 L1.22166135,7.74644867 C0.539222383,7.74644867 0,8.28829919 0,8.98062231 L0,10.0439993 C0,10.7363224 0.539222383,11.3328055 1.22166135,11.3328055 L16.4118114,11.3328055 L11.5937408,16.2023747 C11.3608071,16.438805 11.2324821,16.7455305 11.2324821,17.0817164 C11.2324821,17.4175295 11.3608071,17.72873 11.5937408,17.9649738 L12.3351946,18.7147264 C12.5683122,18.9511567 12.8788293,19.08 13.2104888,19.08 C13.5417805,19.08 13.8524815,18.9494785 14.0855991,18.7130482 L22.2520697,10.4305293 C22.4857388,10.1933531 22.6142477,9.87674537 22.6133284,9.54018646 C22.6140638,9.2025088 22.4857388,8.88571456 22.2518858,8.64891134 Z" id="Shape"></path>
            </g>
        </g>
    </g>
</svg>