<?xml version="1.0" encoding="UTF-8"?>
<svg width="97px" height="97px" viewBox="0 0 97 97" version="1.1" xmlns="http://www.w3.org/2000/svg" xmlns:xlink="http://www.w3.org/1999/xlink">
    <!-- Generator: Sketch 48.1 (47250) - http://www.bohemiancoding.com/sketch -->
    <title>Group 8</title>
    <desc>Created with Sketch.</desc>
    <defs></defs>
    <g id="Page-1" stroke="none" stroke-width="1" fill="none" fill-rule="evenodd">
        <g id="Group-8" transform="translate(-1.000000, -1.000000)">
            <rect id="Rectangle" fill="#20A2E8" transform="translate(49.497475, 49.497475) rotate(45.000000) translate(-49.497475, -49.497475) " x="14.4974747" y="14.4974747" width="70" height="70" rx="3"></rect>
            <g id="tooth-2" transform="translate(30.000000, 29.000000)" fill="#FFFFFF" fill-rule="nonzero">
                <path d="M31.627212,24.3848346 L31.627212,24.4531622 C25.2430199,24.4531622 20.0677051,19.2125412 20.0677051,12.7477884 C20.0677051,6.28303563 25.2431254,1.04241467 31.627212,1.04241467 L31.8127714,1.04241467 C30.4998333,0.343978376 29.036339,-0.0139942459 27.5533398,0.000418609391 C23.7662413,0.000418609391 20.1900056,1.99900122 18.9248279,2.78476874 C17.6596502,1.99900122 14.0834146,0.000418609391 10.296316,0.000418609391 C7.3779728,0.000418609391 3.43905289,1.23885655 1.24607821,7.11503105 C-2.24581224,16.5100775 2.2244823,31.9264946 6.97311593,38.878829 C8.99740025,41.8425391 10.9626429,43.2261732 12.7591953,42.9699446 C15.9221395,42.5087333 17.8958167,35.9919874 18.9248279,31.1834318 C19.9538391,35.9919874 21.9275163,42.5087333 25.0904606,42.9699446 C25.2308953,42.9799803 25.3717518,42.9799803 25.5121865,42.9699446 C27.1990901,42.9699446 29.0125115,41.5863105 30.8765399,38.8532061 C33.3647227,35.2147609 35.7685604,29.2360949 37,23.0353643 C35.3444095,23.9215948 33.4999913,24.3848346 31.627212,24.3848346 Z" id="Shape"></path>
                <path d="M32.0086019,3.00000371 C32.0086019,3.00000371 32.0086019,3.00000371 32.0086019,3.00000371 C26.4856949,2.99529883 22.0047086,7.46867185 22.0000037,12.9914457 C21.9952988,18.5143264 26.4686931,22.9952914 31.9914932,22.9999963 C37.5076637,23.0047012 41.9858698,18.5418072 41.9999845,13.0256629 C42.0096082,7.49807732 37.5362139,3.00941346 32.0086019,3.00000371 Z M38.3987069,16.455944 L38.3987069,16.430281 L35.4388993,16.430281 L35.4388993,19.3900746 C35.4388993,20.0656518 34.8912065,20.6133419 34.2156261,20.6133419 L29.8015777,20.6133419 C29.1259973,20.6133419 28.5783046,20.0656518 28.5783046,19.3900746 L28.5783046,16.455944 L25.6099426,16.455944 C24.9343622,16.455944 24.3866694,15.9082538 24.3866694,15.2326767 L24.3866694,10.8186492 C24.3866694,10.1430721 24.9343622,9.59538193 25.6099426,9.59538193 L28.5783046,9.59538193 L28.5783046,6.63558833 C28.5783046,5.96001116 29.1259973,5.41232103 29.8015777,5.41232103 L34.2156261,5.41232103 C34.8912065,5.41232103 35.4388993,5.96001116 35.4388993,6.63558833 L35.4388993,9.59538193 L38.3987069,9.59538193 C39.0742873,9.59538193 39.6219801,10.1430721 39.6219801,10.8186492 L39.6219801,15.2326767 C39.6219801,15.9082538 39.0742873,16.455944 38.3987069,16.455944 Z" id="Shape"></path>
                <path d="M34.6323423,11.275762 C34.1517766,11.2758708 33.7620377,10.8860668 33.7619289,10.4051524 C33.7619289,10.3992743 33.7619289,10.3933962 33.7621465,10.3875181 L33.7621465,7 L30.2813633,7 L30.2813633,10.3875181 C30.2813633,10.8684325 29.8917331,11.2583454 29.4111675,11.2583454 L26,11.2583454 L26,14.7416546 L29.3937636,14.7416546 C29.8743292,14.7416546 30.2639594,15.1315675 30.2639594,15.6124819 L30.2639594,19 L33.7447426,19 L33.7447426,15.6298984 C33.7447426,15.148984 34.1343727,14.7590711 34.6149384,14.7590711 L38,14.7590711 L38,11.275762 L34.6323423,11.275762 Z" id="Shape"></path>
            </g>
        </g>
    </g>
</svg>