<?xml version="1.0" encoding="UTF-8"?>
<svg width="97px" height="97px" viewBox="0 0 97 97" version="1.1" xmlns="http://www.w3.org/2000/svg" xmlns:xlink="http://www.w3.org/1999/xlink">
    <!-- Generator: Sketch 48.1 (47250) - http://www.bohemiancoding.com/sketch -->
    <title>Group 7</title>
    <desc>Created with Sketch.</desc>
    <defs></defs>
    <g id="Page-1" stroke="none" stroke-width="1" fill="none" fill-rule="evenodd">
        <g id="Group-7" transform="translate(-1.000000, -1.000000)">
            <rect id="Rectangle" fill="#20A2E8" transform="translate(49.497475, 49.497475) rotate(45.000000) translate(-49.497475, -49.497475) " x="14.4974747" y="14.4974747" width="70" height="70" rx="3"></rect>
            <g id="review" transform="translate(28.000000, 29.000000)" fill="#FFFFFF" fill-rule="nonzero">
                <path d="M17.2434508,11.7581895 C16.1197732,10.6309858 14.593199,9.99824045 13.0016373,10.0000037 C9.68790945,9.99912206 7.00088183,12.6846376 7.00000022,15.9983645 C6.9991186,19.3120913 9.68463489,21.9991182 12.9983627,21.9999998 C16.3120906,22.0008814 18.9991182,19.3153659 18.9999998,16.001639 C19.0003777,14.4102038 18.3685137,12.8837559 17.2434508,11.7581895 Z" id="Shape"></path>
                <path d="M13.3349436,25 L12.6702899,25 C5.6797806,25.016727 0.0172705314,30.5011586 0,37.2715424 L0,38.1383056 C0,38.614265 0.398268921,39 0.889694042,39 L25.110306,39 C25.6017311,39 26,38.614265 26,38.1383056 L26,37.2715424 C25.979851,30.5041999 20.322182,25.0223027 13.3349436,25 Z" id="Shape"></path>
                <path d="M44.7947955,2.99214638 C41.9277881,0.992912263 38.4997398,-0.053472781 35,0.00210468392 C31.5002602,-0.053472781 28.0722119,0.992912263 25.2052045,2.99214638 C22.602974,4.89914005 21,7.55234863 21,10.506116 C21.0041636,11.8425662 21.3326952,13.1581586 21.9576208,14.3408315 C22.5160595,15.3939532 23.2539219,16.3425271 24.13829,17.1443195 L21.9159851,21.7407961 C21.7032528,22.1756995 21.8848885,22.6998636 22.3216729,22.9115503 C22.5951673,23.0442107 22.9181041,23.0267213 23.1754647,22.8653005 L28.2862454,19.7249794 C29.2583086,20.1201106 30.2655019,20.4237786 31.2944238,20.6318378 C32.513829,20.8804466 33.7553532,21.0054635 35,21.0049453 C38.4997398,21.0605227 41.9277881,20.0141377 44.7947955,18.0149036 C47.397026,16.1079099 49,13.4547013 49,10.5009339 C49,7.54716658 47.3918216,4.89914005 44.7947955,2.99214638 Z M41.6372491,9.08986228 C41.6367286,9.09206465 41.6362082,9.09439657 41.6356877,9.09659894 C41.6010781,9.25011711 41.5256134,9.39158702 41.4171004,9.50598073 L39.1479554,12.0970047 L39.4498141,15.5741589 C39.4923606,16.05881 39.132342,16.4860698 38.6454647,16.5285626 C38.4754089,16.5433315 38.3047026,16.5088709 38.1539033,16.4291969 L35,15.1077746 L31.7732342,16.4706533 C31.3269517,16.6616117 30.8096283,16.4562731 30.6178439,16.0119125 C30.5598141,15.8773088 30.5365242,15.7303977 30.5501859,15.584523 L30.8520446,12.1073688 L28.5568773,9.4593423 C28.2390149,9.08973273 28.282342,8.53369897 28.6535502,8.21720539 C28.760632,8.1258718 28.8881413,8.0613553 29.0252788,8.02909705 L32.4342007,7.24142575 L34.2401487,4.27729429 C34.4904833,3.85949167 35.0335688,3.72281515 35.4531784,3.97194211 C35.5792565,4.04682271 35.6846468,4.15175918 35.7598513,4.27729429 L37.5553903,7.25178985 L40.9643123,8.03946115 C41.4414312,8.14452717 41.7427695,8.61479803 41.6372491,9.08986228 Z" id="Shape"></path>
            </g>
        </g>
    </g>
</svg>