<?xml version="1.0" encoding="UTF-8"?>
<svg width="877px" height="885px" viewBox="0 0 877 885" version="1.1" xmlns="http://www.w3.org/2000/svg" xmlns:xlink="http://www.w3.org/1999/xlink">
    <!-- Generator: Sketch 48.1 (47250) - http://www.bohemiancoding.com/sketch -->
    <title>Group</title>
    <desc>Created with Sketch.</desc>
    <defs></defs>
    <g id="Page-1" stroke="none" stroke-width="1" fill="none" fill-rule="evenodd">
        <g id="Group">
            <g id="tetra" fill="#20A2E8">
                <path d="M-8.8817842e-16,624 L-8.8817842e-16,262 C8.66666667,240 17.3333333,223.666667 26,213 C34.6666667,202.333333 48,188.666667 66,172 C156.000286,119.699952 223.666953,81.6999519 269,58 C314.333047,34.3000481 356.333047,14.9667148 395,0 L439,0 L439,885 L395,885 C371.644324,880.119426 345.644324,870.452759 317,856 C288.355676,841.547241 204.689009,795.880574 66,719 C45.1883765,700.973168 30.8550432,686.306502 23,675 C15.1449568,663.693498 7.47829018,646.693498 -8.8817842e-16,624 Z" id="Path"></path>
                <path d="M438,624 L438,262 C446.666667,240 455.333333,223.666667 464,213 C472.666667,202.333333 486,188.666667 504,172 C594.000286,119.699952 661.666953,81.6999519 707,58 C752.333047,34.3000481 794.333047,14.9667148 833,0 L877,0 L877,885 L833,885 C809.644324,880.119426 783.644324,870.452759 755,856 C726.355676,841.547241 642.689009,795.880574 504,719 C483.188376,700.973168 468.855043,686.306502 461,675 C453.144957,663.693498 445.47829,646.693498 438,624 Z" id="Path" transform="translate(657.500000, 442.500000) rotate(-180.000000) translate(-657.500000, -442.500000) "></path>
            </g>
            <g id="arrow" transform="translate(242.000000, 233.000000)" fill="#FFFFFF" stroke="#FFFFFF" stroke-width="0.5">
                <path d="M39,206 C29.9164453,212.538291 12.4587554,209.905148 6,204 C-0.4587554,198.094852 -2,183 3,174 C6.28782015,168.081924 69.8601141,110.445378 193.716882,1.09036423 L193.716885,1.09036738 C194.958909,-0.00623425018 196.854739,0.111653734 197.951341,1.35367756 C198.454575,1.92364692 198.722616,2.66343526 198.701271,3.4234711 L197,64 C97.7223698,154.307806 45.0557031,201.641139 39,206 Z" id="Path-2"></path>
                <path d="M368.507304,206 C378.305392,212.538291 396.057681,209.905148 403.024497,204 C409.991313,198.094852 411.653795,183 406.260484,174 C403.904658,170.068755 334.94063,112.861085 199.368399,2.37698894 L199.368393,2.37699702 C197.655906,0.981411926 195.136315,1.23831173 193.74073,2.95079879 C193.097212,3.74044398 192.779205,4.74585727 192.851582,5.76193653 L197,64 C304.806144,154.307806 361.975245,201.641139 368.507304,206 Z" id="Path-2"></path>
            </g>
            <g id="arrow" transform="translate(242.000000, 414.000000)" fill="#FFFFFF" stroke="#FFFFFF" stroke-width="0.5">
                <path d="M39,206 C29.9164453,212.538291 12.4587554,209.905148 6,204 C-0.4587554,198.094852 -2,183 3,174 C6.28782015,168.081924 69.8601141,110.445378 193.716882,1.09036423 L193.716885,1.09036738 C194.958909,-0.00623425018 196.854739,0.111653734 197.951341,1.35367756 C198.454575,1.92364692 198.722616,2.66343526 198.701271,3.4234711 L197,64 C97.7223698,154.307806 45.0557031,201.641139 39,206 Z" id="Path-2"></path>
                <path d="M368.507304,206 C378.305392,212.538291 396.057681,209.905148 403.024497,204 C409.991313,198.094852 411.653795,183 406.260484,174 C403.904658,170.068755 334.94063,112.861085 199.368399,2.37698894 L199.368393,2.37699702 C197.655906,0.981411926 195.136315,1.23831173 193.74073,2.95079879 C193.097212,3.74044398 192.779205,4.74585727 192.851582,5.76193653 L197,64 C304.806144,154.307806 361.975245,201.641139 368.507304,206 Z" id="Path-2"></path>
            </g>
        </g>
    </g>
</svg>