<?xml version="1.0" encoding="UTF-8"?>
<svg width="44px" height="53px" viewBox="0 0 44 53" version="1.1" xmlns="http://www.w3.org/2000/svg" xmlns:xlink="http://www.w3.org/1999/xlink">
    <!-- Generator: Sketch 48.1 (47250) - http://www.bohemiancoding.com/sketch -->
    <title>icon-teeth-4</title>
    <desc>Created with Sketch.</desc>
    <defs></defs>
    <g id="Page-1" stroke="none" stroke-width="1" fill="none" fill-rule="evenodd">
        <g id="1" transform="translate(-349.000000, -234.000000)" fill="#20A2E8" fill-rule="nonzero">
            <g id="icon-teeth-4" transform="translate(349.000000, 234.000000)">
                <g id="Group">
                    <g id="jupma-link">
                        <g>
                            <path d="M40.647,13.588 L38.643,16.584 C38.449,16.874 38.139,17.064 37.793,17.104 L33.85,17.55 L32.241,15.268 L33.788,15.415 C34.9669683,15.5216494 36.1363133,15.1266543 37.0091171,14.3269331 C37.8819208,13.5272119 38.377407,12.3967773 38.374,11.213 C38.3721847,10.1565017 37.9780322,9.13833386 37.268,8.356 L38.554,6.638 L39.604,7.428 C41.531539,8.87903587 41.9894202,11.5833006 40.647,13.588 Z M32.393,31.817 L29.303,30.017 L30.314,27.661 C30.7711485,26.5908354 30.7697028,25.3800699 30.31,24.311 L23.626,8.861 C23.4866396,8.54032954 23.4939419,8.17484792 23.646,7.86 L25.219,4.613 C26.2549158,2.444974 28.8210554,1.48587604 31.025,2.443 L32.227,2.965 L31.395,4.943 C29.418647,4.50438281 27.4122646,5.54613397 26.634,7.415 C26.0614579,8.76360408 26.2275406,10.3124484 27.073,11.509 L33.406,20.511 C34.9031759,22.6561125 35.1809999,25.4241328 34.14,27.824 L32.393,31.817 Z M24.819,49.149 C24.4212278,50.0627463 23.559008,50.6887363 22.567,50.784 L21.036,50.928 C20.8808627,50.9458941 20.7285263,50.8766502 20.64,50.748 C20.5453577,50.6216641 20.5269654,50.4538347 20.592,50.31 L28.495,31.93 L31.578,33.722 L24.819,49.149 Z M21.169,18.988 C20.0188627,19.1209295 18.9756868,19.7258266 18.289,20.658 L16.771,22.719 L13.679,20.919 L16.235,17.398 C17.7666614,15.2927068 20.2920903,14.1473394 22.885,14.382 L23.814,14.47 L25.555,18.49 L21.169,18.988 Z M38.955,4.363 C38.7377208,4.19937053 38.4641317,4.12920409 38.1949205,4.16806512 C37.9257093,4.20692615 37.6831329,4.35160184 37.521,4.57 L35.045,7.883 C34.880139,8.10484332 34.8101713,8.3830977 34.850493,8.65653464 C34.8908146,8.92997158 35.0381217,9.17618614 35.26,9.341 L35.443,9.476 C35.996,9.887 36.313,10.521 36.313,11.213 C36.3136316,11.8152337 36.0611823,12.3900188 35.6172904,12.7970148 C35.1733984,13.2040108 34.5789186,13.4057589 33.979,13.353 L30.672,13.04 L28.751,10.312 C28.3193278,9.70192651 28.2345586,8.91175617 28.527,8.224 C28.8574442,7.42979598 29.6327951,6.91197517 30.493,6.911 C30.786,6.911 31.073,6.973 31.35,7.095 L31.563,7.188 C31.8144516,7.29867698 32.099918,7.30323986 32.3547783,7.20065574 C32.6096387,7.09807162 32.8123411,6.8970154 32.917,6.643 L34.524,2.825 C34.7451635,2.30166393 34.5044961,1.69776692 33.984,1.47 L31.844,0.54 C28.631,-0.854 24.911,0.536 23.375,3.704 L21.801,6.951 C21.383939,7.81175898 21.3631236,8.81162947 21.744,9.689 L22.877,12.305 C19.6285447,12.0798689 16.4927907,13.5419615 14.577,16.175 L11.343,20.632 L7.845,25.451 C7.51008582,25.9127006 7.60907854,26.5579369 8.067,26.898 C8.524,27.235 9.167,27.135 9.502,26.674 L12.459,22.6 L15.539,24.392 L3.696,40.477 C3.60595031,40.6046682 3.45311528,40.6726375 3.298,40.654 C3.14189625,40.6402722 3.00593289,40.5419484 2.944,40.398 L2.303,38.991 C1.88844742,38.0805836 1.99539626,37.0175886 2.583,36.208 L5.261,32.518 C5.59626925,32.0561783 5.49675527,31.410453 5.038,31.071 C4.81833757,30.9091972 4.54310004,30.8419382 4.27357124,30.8841988 C4.00404244,30.9264594 3.76259892,31.0747311 3.603,31.296 L0.926,34.986 C-0.101120996,36.4027596 -0.288227828,38.2619905 0.436,39.855 L1.078,41.261 C1.47793291,42.157025 2.36979007,42.7318471 3.351,42.726 C4.137,42.726 4.869,42.358 5.346,41.71 L17.86,24.713 L17.862,24.71 L19.937,21.892 C20.2854319,21.4192361 20.8145963,21.1124584 21.398,21.045 L26.415,20.475 L28.435,25.138 C28.668,25.678 28.668,26.298 28.436,26.838 L18.786,49.304 L18.708,49.487 C18.35269,50.3021735 18.4554085,51.2445203 18.978,51.964 C19.4893473,52.6851276 20.3483088,53.0764323 21.228,52.989 L22.755,52.845 C24.4904767,52.6784882 25.9989765,51.5834858 26.695,49.985 L33.818,33.707 L33.818,33.706 L36.028,28.66 C37.3312655,25.6586916 37.0205114,22.2008464 35.203,19.48 L38.018,19.16 C38.9634247,19.0519344 39.8130469,18.532355 40.34,17.74 L42.341,14.743 C44.294,11.819 43.629,7.877 40.824,5.768 L38.955,4.363 Z" id="jupma"></path>
                        </g>
                    </g>
                    <g transform="translate(27.000000, 15.000000)" id="jupmb-link">
                        <g>
                            <path d="M2.598,1.555 C2.54385684,1.42672144 2.46618677,1.30970758 2.369,1.21 C2.22096416,1.06135409 2.03186662,0.960362769 1.826,0.92 C1.32954424,0.819882502 0.831914193,1.08632017 0.64,1.555 C0.533150596,1.81477526 0.533150596,2.10622474 0.64,2.366 C0.667,2.429 0.7,2.491 0.738,2.549 C0.777,2.607 0.822,2.66 0.87,2.711 C0.969640822,2.80754408 1.08626598,2.88484215 1.214,2.939 C1.34302162,2.99133739 1.48077217,3.01881965 1.62,3.02 C1.75905221,3.02133023 1.89689729,2.99410158 2.025,2.94 C2.35327514,2.80642356 2.59179869,2.51598164 2.659,2.168 C2.68616102,2.0309999 2.68616102,1.8900001 2.659,1.753 C2.64547331,1.68520917 2.62537851,1.61889634 2.599,1.555 L2.598,1.555 Z" id="jupmb"></path>
                        </g>
                    </g>
                    <g transform="translate(5.000000, 28.000000)" id="jupmc-link">
                        <g>
                            <path d="M0.38,2.085 C0.486579842,2.34536025 0.693454309,2.5518743 0.954,2.658 C1.08296193,2.71065679 1.22071037,2.7384779 1.36,2.74 C1.49916409,2.74041625 1.63695824,2.71251719 1.765,2.658 C1.95956973,2.57932061 2.12559036,2.4432953 2.241,2.268 C2.39558169,2.03384951 2.45229957,1.74846526 2.399,1.473 C2.37032332,1.33764081 2.31674753,1.20878763 2.241,1.093 C2.16471827,0.975790144 2.06494927,0.875680643 1.948,0.799 C1.83295336,0.720975712 1.70338105,0.666902229 1.567,0.64 C1.18316242,0.562617512 0.787949934,0.703347598 0.539406815,1.00591273 C0.290863696,1.30847785 0.229555812,1.72349497 0.38,2.085 Z" id="jupmc"></path>
                        </g>
                    </g>
                </g>
            </g>
        </g>
    </g>
</svg>