<?xml version="1.0" encoding="UTF-8"?>
<svg width="59px" height="45px" viewBox="0 0 59 45" version="1.1" xmlns="http://www.w3.org/2000/svg" xmlns:xlink="http://www.w3.org/1999/xlink">
    <!-- Generator: Sketch 48.1 (47250) - http://www.bohemiancoding.com/sketch -->
    <title>icon-teeth-3</title>
    <desc>Created with Sketch.</desc>
    <defs></defs>
    <g id="Page-1" stroke="none" stroke-width="1" fill="none" fill-rule="evenodd">
        <g id="1" transform="translate(-456.000000, -238.000000)" fill="#20A2E8" fill-rule="nonzero">
            <g id="icon-teeth-3" transform="translate(456.000000, 238.000000)">
                <g id="Group">
                    <g id="ckgea-link">
                        <g>
                            <path d="M55.62,27.423 L32.254,27.423 C31.159,23.742 30.881,19.946 31.471,16.73 C31.914,14.32 32.818,12.417 33.951,11.509 C35.804,10.026 37.214,10.494 39.348,11.202 C40.661,11.637 42.148,12.132 43.918,12.162 L43.958,12.162 C45.726,12.132 47.214,11.638 48.528,11.202 C50.661,10.494 52.071,10.026 53.924,11.509 C55.057,12.417 55.962,14.319 56.404,16.729 C56.994,19.946 56.716,23.742 55.621,27.423 L55.62,27.423 Z M52.405,30.698 C52.40445,30.9523751 52.1983751,31.15845 51.944,31.159 L35.615,31.159 C35.3606249,31.15845 35.15455,30.9523751 35.154,30.698 L35.154,29.713 L52.405,29.713 L52.405,30.698 Z M45.904,34.644 L41.998,35.101 L41.898,33.449 L45.976,33.449 L45.904,34.644 Z M45.636,38.914 L42.253,39.311 L42.137,37.391 L45.754,36.966 L45.636,38.914 Z M45.456,42.057 C45.4333324,42.4115795 45.1393032,42.6876695 44.784,42.688 L43.091,42.688 C42.7356968,42.6876695 42.4416676,42.4115795 42.419,42.057 L42.392,41.601 L45.505,41.237 L45.456,42.057 Z M21.339,37.329 C21.1828881,37.3052171 21.0507462,37.2011744 20.991,37.055 C20.5122898,35.9445612 20.085823,34.812322 19.713,33.662 C19.4273133,32.7489526 18.8554786,31.9520304 18.082,31.389 C17.3120295,30.8218393 16.380306,30.5168734 15.424,30.519 L15.375,30.521 C15.875,30.051 16.485,29.721 17.216,29.721 C17.8489183,29.721 18.362,29.2079183 18.362,28.575 C18.362,27.9420817 17.8489183,27.429 17.216,27.429 C13.242,27.429 11.667,32.109 11.404,32.999 C11.299,33.209 11.209,33.431 11.136,33.661 C10.82,34.659 10.39,35.801 9.859,37.054 C9.79901092,37.2009883 9.66600816,37.3054905 9.509,37.329 C9.35945376,37.3569933 9.20616875,37.3046336 9.105,37.191 C4.262,31.83 1.736,23.416 2.962,16.732 C3.405,14.322 4.309,12.418 5.442,11.51 C5.714,11.293 5.979,11.114 6.242,10.972 C6.312,11.056 6.377,11.142 6.441,11.23 L6.497,11.31 C6.543,11.376 6.589,11.443 6.633,11.51 L6.684,11.593 C6.742,11.685 6.798,11.779 6.849,11.874 L6.85,11.875 C6.903,11.972 6.951,12.07 6.998,12.168 L7.038,12.256 C7.130005,12.459545 7.21111956,12.6678392 7.281,12.88 L7.56,13.75 C7.76,14.374 8.336,14.795 8.992,14.796 L8.995,14.796 C9.65019156,14.7973779 10.2307844,14.3741723 10.43,13.75 L10.71,12.88 C10.737,12.794 10.767,12.71 10.798,12.627 L10.823,12.56 C10.851,12.488 10.88,12.417 10.91,12.346 L10.925,12.311 C10.999687,12.144269 11.0814274,11.9807882 11.17,11.821 L11.197,11.771 C11.2405913,11.6949607 11.2859368,11.6199406 11.333,11.546 L11.363,11.499 L11.432,11.398 C12.596,11.774 13.898,12.138 15.405,12.163 L15.445,12.163 C17.213,12.132 18.7,11.638 20.013,11.202 C22.145,10.494 23.554,10.025 25.407,11.51 C26.539,12.417 27.443,14.32 27.887,16.732 C29.112,23.416 26.587,31.828 21.745,37.19 C21.6438577,37.3050475 21.4895568,37.3582547 21.339,37.33 L21.339,37.329 Z M8.998,3.758 C9.78588185,5.33227899 11.0621543,6.60925304 12.636,7.398 C11.0608958,8.18426177 9.7835602,9.46054467 8.996,11.035 C8.57362127,10.1894912 8.00714984,9.42404419 7.322,8.773 L7.321,8.773 C6.73755621,8.22052524 6.07575695,7.75719836 5.357,7.398 C6.93171807,6.6097784 8.2087784,5.33271807 8.997,3.758 L8.998,3.758 Z M55.355,9.721 C52.53,7.461 50.129,8.258 47.805,9.028 C46.598,9.429 45.348,9.844 43.938,9.872 C42.527,9.844 41.278,9.429 40.069,9.028 C37.746,8.258 35.345,7.461 32.52,9.721 C31.296,10.701 30.318,12.331 29.683,14.403 C29.049,12.33 28.07,10.701 26.846,9.722 C24.022,7.46 21.62,8.257 19.297,9.028 C18.089,9.429 16.84,9.844 15.429,9.872 C14.743687,9.85305593 14.0627053,9.75677921 13.399,9.585 C13.7421156,9.39155627 14.1039675,9.2334136 14.479,9.113 L15.348,8.833 L15.351,8.833 C15.9748464,8.63211797 16.3967845,8.05038556 16.394,7.395 C16.3940705,6.7409146 15.9711167,6.16188026 15.348,5.963 L14.478,5.683 C12.6899859,5.10534683 11.2887038,3.7033205 10.712,1.915 L10.432,1.044 C10.2318063,0.42081521 9.65154948,-0.0013367895 8.997,-1.16573418e-13 L8.994,-1.16573418e-13 C8.338,-1.16573418e-13 7.762,0.422 7.561,1.047 L7.282,1.916 C6.70476412,3.70448492 5.30263808,5.10623886 3.514,5.683 L2.646,5.963 C2.021,6.163 1.6,6.739 1.599,7.395 C1.59683416,8.05135525 2.02000758,8.63352213 2.645,8.834 L3.515,9.114 C3.805,9.206 4.085,9.324 4.357,9.46 C4.242,9.544 4.127,9.63 4.011,9.722 C2.431,10.987 1.259,13.329 0.71,16.316 C0.068,19.811 0.34,23.905 1.477,27.844 C2.671,31.985 4.722,35.745 7.409,38.717 C8.03413484,39.4103475 8.97078786,39.7352702 9.891,39.578 C10.8186458,39.4249858 11.6030608,38.8070419 11.969,37.941 C12.529,36.621 12.985,35.41 13.323,34.344 C13.6114088,33.424294 14.4651394,32.7996032 15.429,32.803 C15.903,32.803 16.354,32.95 16.735,33.229 C17.117,33.508 17.393,33.893 17.535,34.344 C17.9300954,35.5635553 18.3822604,36.7638781 18.89,37.941 C19.3192394,38.9610454 20.3203338,39.6223912 21.427,39.617 C22.1987455,39.6174887 22.9344239,39.2903589 23.451,38.717 C26.136,35.745 28.187,31.985 29.381,27.844 C29.491,27.461 29.591,27.077 29.685,26.693 C29.802,27.17 29.931,27.648 30.073,28.123 C30.353,29.059 31.234,29.713 32.215,29.713 L32.863,29.713 L32.863,30.698 C32.8652043,32.2168117 34.0961876,33.4473477 35.615,33.449 L39.605,33.449 L39.72,35.367 L39.386,35.407 C38.7577761,35.48073 38.30827,36.0497761 38.382,36.678 C38.45573,37.3062239 39.0247761,37.75573 39.653,37.682 L39.859,37.657 L39.975,39.577 L39.387,39.647 C38.7829923,39.7464039 38.36374,40.3029465 38.4348591,40.9109338 C38.5059781,41.5189211 39.0423569,41.9636793 39.653,41.921 L40.113,41.868 L40.133,42.195 C40.2296044,43.7582925 41.5247265,44.9772309 43.091,44.979 L44.785,44.979 C46.3508877,44.9767036 47.64542,43.7579081 47.742,42.195 L47.817,40.966 L48.675,40.866 C49.0813897,40.8183051 49.4314642,40.5574269 49.593354,40.1816356 C49.7552438,39.8058444 49.7043539,39.3722318 49.459854,39.0441355 C49.2153541,38.7160393 48.8143896,38.543305 48.408,38.591 L47.957,38.644 L48.075,36.696 L48.675,36.626 C49.2853293,36.532757 49.7120833,35.9727656 49.6401163,35.3595635 C49.5681492,34.7463614 49.0233335,34.3003959 48.408,34.351 L48.215,34.374 L48.271,33.449 L51.935,33.449 C53.4534219,33.446797 54.683797,32.2164219 54.686,30.698 L54.686,29.713 L55.661,29.713 C56.641,29.713 57.522,29.059 57.802,28.123 C59.01,24.087 59.313,19.894 58.656,16.316 C58.108,13.328 56.936,10.986 55.355,9.721 Z" id="ckgea"></path>
                        </g>
                    </g>
                    <g transform="translate(23.000000, 14.000000)" id="ckgeb-link">
                        <g>
                            <path d="M1.054,0.651 C0.788049143,0.796670685 0.590952166,1.04213238 0.506162393,1.33326894 C0.421372619,1.62440551 0.455852367,1.93731094 0.602,2.203 C0.675,2.341 2.379,5.65 0.522,11.221 C0.348863244,11.8126429 0.674777519,12.4352451 1.2596257,12.6301048 C1.84447388,12.8249645 2.47868304,12.5222561 2.695,11.945 C4.89,5.361 2.705,1.276 2.612,1.105 C2.30620515,0.550566328 1.60976027,0.347622825 1.054,0.651 Z" id="ckgeb"></path>
                        </g>
                    </g>
                    <g transform="translate(21.000000, 27.000000)" id="ckgec-link">
                        <g>
                            <path d="M3.143,1.467 C3.05561589,1.25809069 2.90889767,1.0793865 2.721,0.953 C2.59604907,0.870727942 2.45655902,0.813031328 2.31,0.783 C1.79482416,0.679942174 1.27561645,0.940714753 1.05066419,1.41550265 C0.825711926,1.89029054 0.952744666,2.45724879 1.3587815,2.79065718 C1.76481833,3.12406558 2.3456579,3.13836142 2.7676051,2.82533168 C3.18955231,2.51230194 3.34432272,1.95227953 3.143,1.467 Z" id="ckgec"></path>
                        </g>
                    </g>
                </g>
            </g>
        </g>
    </g>
</svg>