<?xml version="1.0" encoding="UTF-8"?>
<svg width="53px" height="44px" viewBox="0 0 53 44" version="1.1" xmlns="http://www.w3.org/2000/svg" xmlns:xlink="http://www.w3.org/1999/xlink">
    <!-- Generator: Sketch 48.1 (47250) - http://www.bohemiancoding.com/sketch -->
    <title>icon-teeth-1</title>
    <desc>Created with Sketch.</desc>
    <defs></defs>
    <g id="Page-1" stroke="none" stroke-width="1" fill="none" fill-rule="evenodd">
        <g id="1" transform="translate(-371.000000, -348.000000)" fill="#20A2E8" fill-rule="nonzero">
            <g id="icon-teeth-1" transform="translate(371.000000, 348.000000)">
                <g id="Group">
                    <g transform="translate(8.000000, 7.000000)" id="99tka-link">
                        <g>
                            <path d="M8.547,21.022 C8.49502008,20.8969124 8.41967583,20.7828778 8.325,20.686 C8.1827693,20.5421819 8.00113155,20.4437078 7.803,20.403 C7.53576847,20.3503303 7.25857161,20.4067282 7.03316502,20.559629 C6.80775843,20.7125298 6.65286758,20.9492314 6.603,21.217 C6.53542659,21.5557637 6.63946302,21.9060447 6.881,22.153 C7.12160308,22.3956924 7.46767238,22.5019154 7.803,22.436 C8.28425367,22.33629 8.62801774,21.9104581 8.624,21.419 C8.62519502,21.282844 8.59900974,21.1478367 8.547,21.022 Z M7.799,17.974 C7.029,14.208 7.477,11.265 8.152,9.767 C8.38665643,9.25043806 8.16308105,8.64117289 7.65,8.399 C7.40376225,8.28557311 7.12230992,8.27568757 6.86872092,8.37155887 C6.61513192,8.46743018 6.41061298,8.66104096 6.301,8.909 C5.909,9.78 4.712,13.039 5.806,18.392 C5.85882812,18.6580062 6.01541613,18.8920225 6.24115573,19.0423279 C6.46689533,19.1926333 6.74319918,19.2468517 7.009,19.193 C7.559,19.078 7.913,18.532 7.799,17.973 L7.799,17.974 Z M28.627,32.174 C28.2758896,31.8814549 27.9519079,31.5578079 27.659,31.207 C27.4855702,30.9978603 27.2354655,30.8670675 26.9647579,30.8439445 C26.6940502,30.8208216 26.4253867,30.9073029 26.219,31.084 C25.7881012,31.4547108 25.7346586,32.1027023 26.099,32.539 C26.259,32.732 26.429,32.917 26.605,33.096 C26.1970131,33.6283677 25.7693847,34.145391 25.323,34.646 C25.1199872,34.8673545 24.8180042,34.9697271 24.5222336,34.9174608 C24.2264631,34.8651945 23.9778545,34.6655255 23.863,34.388 C23.224,32.872 22.71,31.491 22.333,30.282 C22.0153188,29.2583489 21.3786528,28.3630921 20.516,27.727 C19.6606607,27.0903593 18.6222603,26.747617 17.556,26.75 C15.362,26.75 13.442,28.17 12.782,30.283 C12.408,31.479 11.892,32.861 11.252,34.388 C11.1363387,34.6706987 10.8823574,34.8732024 10.581,34.923 C10.2875299,34.9753646 9.988014,34.8707235 9.791,34.647 C3.968,28.135 0.932,17.912 2.408,9.788 C2.948,6.814 4.067,4.453 5.477,3.311 C6.61,2.394 7.625,2.064 8.659,2.064 C9.765,2.064 10.893,2.442 12.21,2.884 C13.747,3.4 15.489,3.984 17.539,4.02 L17.574,4.02 C19.624,3.984 21.367,3.4 22.904,2.884 C25.451,2.03 27.291,1.413 29.637,3.311 C31.047,4.453 32.167,6.814 32.707,9.788 C33.093,11.914 33.177,14.208 32.959,16.619 C28.312,16.843 24.46,20.429 23.906,25.137 C23.8706615,25.4283372 23.9612774,25.7209146 24.1550976,25.9412776 C24.3489178,26.1616407 24.6275352,26.2888615 24.921,26.291 C25.431,26.291 25.872,25.906 25.934,25.381 C26.384,21.557 29.602,18.672 33.419,18.672 C33.542,18.672 33.674,18.676 33.822,18.684 L33.823,18.684 C37.823,18.897 40.958,22.239 40.958,26.293 C40.958,30.493 37.576,33.912 33.42,33.912 C31.6683248,33.9105587 29.9724827,33.2956257 28.627,32.174 Z M34.715,9.415 C34.079,5.909 32.728,3.169 30.913,1.699 C27.701,-0.901 24.935,0.027 22.261,0.925 C20.799,1.415 19.288,1.922 17.556,1.955 C15.826,1.922 14.315,1.415 12.853,0.925 C10.179,0.027 7.413,-0.9 4.2,1.699 C2.385,3.169 1.035,5.909 0.4,9.415 C-0.355,13.561 -0.034,18.424 1.302,23.105 C2.707,28.031 5.119,32.5 8.276,36.031 C8.93741058,36.7762695 9.93697197,37.1268534 10.919,36.958 C11.9105106,36.7901336 12.7462683,36.1246998 13.132,35.196 C13.799,33.606 14.336,32.163 14.729,30.906 C15.1092045,29.6631273 16.256404,28.8142312 17.5561302,28.8140013 C18.8558563,28.8137715 20.0033559,29.6622618 20.384,30.905 C20.782,32.175 21.319,33.619 21.982,35.195 C22.3671177,36.1239377 23.2025617,36.7898002 24.194,36.958 C25.1760114,37.1266555 26.1754787,36.7761045 26.837,36.031 C27.3063938,35.5053993 27.7566862,34.9630471 28.187,34.405 C29.7402303,35.4282166 31.5590285,35.9743428 33.419,35.976 C38.702,35.976 43,31.632 43,26.293 C43,21.508 39.563,17.503 35,16.74 C35.227,14.166 35.132,11.706 34.715,9.415 Z" id="99tka"></path>
                        </g>
                    </g>
                    <g id="99tkb-link">
                        <g>
                            <path d="M6.513,9.576 C5.79761328,8.25480797 4.71179348,7.17142119 3.389,6.459 C4.69541204,5.75579923 5.77112041,4.69050766 6.487,3.391 C7.19680459,4.71300266 8.28534064,5.79283321 9.613,6.492 C8.31056736,7.20850015 7.23623014,8.27729241 6.513,9.576 Z M11.941,7.828 L11.953,7.825 C12.5754346,7.6613926 13.006933,7.09554032 13,6.452 C12.9904205,5.80905713 12.5455917,5.25466859 11.92,5.106 L11.895,5.099 C9.93540299,4.63494955 8.39507635,3.12197054 7.896,1.171 L7.867,1.057 C7.70652986,0.433605303 7.1437151,-0.00157773112 6.5,2.84217103e-14 C5.854,2.84217103e-14 5.291,0.435 5.133,1.057 L5.129,1.069 C4.61992079,3.05263054 3.06549765,4.59822609 1.079,5.096 L1.065,5.1 C0.44068587,5.25545515 0.0021139577,5.8156236 0.001,6.459 C0.001,7.101 0.438,7.661 1.068,7.819 L1.077,7.821 C3.06469095,8.31838003 4.62033106,9.86442453 5.13,11.849 L5.158,11.963 C5.315,12.573 5.867,13 6.501,13 C7.134,13 7.686,12.573 7.842,11.963 C8.36155363,9.94533729 9.92882647,8.3646853 11.942,7.828 L11.941,7.828 Z" id="99tkb"></path>
                        </g>
                    </g>
                    <g transform="translate(43.000000, 8.000000)" id="99tkc-link">
                        <g>
                            <path d="M5.008,6.603 C4.57574357,5.95327499 4.017778,5.39666948 3.367,4.966 C4.00474768,4.54336502 4.55343256,3.99977629 4.982,3.366 C5.412,4.014 5.971,4.568 6.624,4.994 C5.98744415,5.42252362 5.4388885,5.96904256 5.008,6.604 L5.008,6.603 Z M8.981,3.69 L8.963,3.686 C7.66401788,3.37793841 6.64326186,2.37451598 6.313,1.081 L6.291,0.999 C6.13965833,0.41001754 5.60811426,-0.00130122494 5,6.99440336e-15 C4.39,6.99440336e-15 3.859,0.41 3.706,1.007 C3.36620002,2.32859625 2.32920817,3.35752559 1.005,3.687 C0.415133865,3.83380327 0.000815803329,4.36314098 0,4.971 C0,5.578 0.413,6.105 1.013,6.257 C2.33406478,6.58760917 3.36803481,7.61505452 3.707,8.934 L3.727,9.016 C3.875,9.596 4.398,10 5,10 C5.5995022,10.0019266 6.12381323,9.59664611 6.273,9.016 C6.62024964,7.66874199 7.66804458,6.61406373 9.013,6.258 C9.601,6.101 10.008,5.568 10,4.962 C9.99199717,4.35423619 9.57150667,3.82985979 8.98,3.69 L8.981,3.69 Z" id="99tkc"></path>
                        </g>
                    </g>
                    <g transform="translate(37.000000, 29.000000)" id="99tkd-link">
                        <g>
                            <path d="M10.776,0.012 C7.612,0.485 5.675,3.661 4.718,5.785 C3.396,4.671 1.598,4.205 1.318,4.138 C0.75,4.002 0.175,4.333 0.033,4.879 C-0.111,5.425 0.233,5.979 0.8,6.118 C1.523,6.295 3.66,7.065 3.987,8.243 C4.11,8.687 4.527,8.997 5.005,9 L5.012,9 C5.487,9 5.905,8.695 6.033,8.254 C6.497,6.664 8.31,2.446 11.102,2.029 C11.681,1.943 12.077,1.421 11.987,0.864 C11.897,0.307 11.355,-0.074 10.777,0.012 L10.776,0.012 Z" id="99tkd"></path>
                        </g>
                    </g>
                    <g transform="translate(33.000000, 34.000000)" id="99tke-link">
                        <g>
                            <path d="M1.924,1.617 C1.87313236,1.49607334 1.79945815,1.38607129 1.707,1.293 C1.61388123,1.20059985 1.5038911,1.12693362 1.383,1.076 C1.13843752,0.972819259 0.862562485,0.972819259 0.618,1.076 C0.308688172,1.20234128 0.0838637068,1.47604062 0.02,1.804 C-0.00534086348,1.93310157 -0.00534086348,2.06589843 0.02,2.195 C0.114392706,2.66180443 0.523751525,2.99806346 1,3 C1.2652167,3.00005332 1.51956958,2.89464258 1.707,2.707 C1.84816599,2.56808675 1.94373032,2.389514 1.981,2.195 C2.02002899,2.00095833 2.00017977,1.79968025 1.924,1.617 Z" id="99tke"></path>
                        </g>
                    </g>
                </g>
            </g>
        </g>
    </g>
</svg>