<?xml version="1.0" encoding="UTF-8"?>
<svg width="53px" height="49px" viewBox="0 0 53 49" version="1.1" xmlns="http://www.w3.org/2000/svg" xmlns:xlink="http://www.w3.org/1999/xlink">
    <!-- Generator: Sketch 48.1 (47250) - http://www.bohemiancoding.com/sketch -->
    <title>icon-teeth-5</title>
    <desc>Created with Sketch.</desc>
    <defs></defs>
    <g id="Page-1" stroke="none" stroke-width="1" fill="none" fill-rule="evenodd">
        <g id="1" transform="translate(-50.000000, -2.000000)">
            <g id="icon-teeth-5" transform="translate(50.000000, 2.000000)">
                <g id="Group">
                    <g fill="#20A2E8" fill-rule="nonzero" id="tg2xa-link">
                        <g>
                            <path d="M38.19,45.631 C37.0604065,46.125457 35.7755935,46.125457 34.646,45.631 C29.198,43.235 25.418,38.189 23.414,30.631 C22.084,25.624 21.899,20.707 21.907,18.221 C21.9060193,17.8619364 22.0817768,17.5253794 22.377,17.321 L22.407,17.301 C22.458749,17.2671161 22.5128916,17.2370369 22.569,17.211 L22.606,17.196 C22.629,17.186 22.653,17.179 22.676,17.171 L22.708,17.161 C22.743,17.151 22.778,17.143 22.813,17.136 L22.828,17.134 C22.858,17.129 22.89,17.125 22.921,17.123 L22.957,17.121 C22.983,17.12 23.009,17.119 23.036,17.121 L23.063,17.121 C23.099,17.123 23.134,17.126 23.17,17.131 L24.818,17.371 C25.914,17.531 27.014,17.545 28.103,17.416 L28.157,17.41 L28.252,17.397 C28.622,17.348 28.992,17.284 29.358,17.202 L29.374,17.198 C29.468,17.177 29.562,17.155 29.656,17.131 L29.657,17.131 C31.2528222,16.7331735 32.7591986,16.0376618 34.097,15.081 L36.418,13.431 L38.74,15.081 C41.484,17.031 44.778,17.845 48.018,17.371 L49.666,17.131 C49.988,17.084 50.301,17.176 50.548,17.389 C50.793,17.602 50.928,17.897 50.929,18.221 C50.951,24.769 49.753,40.546 38.191,45.631 L38.19,45.631 Z M19.641,26.209 C19.356415,25.294311 18.7857606,24.4951144 18.013,23.929 C17.2455594,23.361239 16.3156271,23.0558201 15.361,23.058 C13.3972393,23.0546811 11.6610803,24.3328672 11.081,26.209 C10.696079,27.4040273 10.2552603,28.5803225 9.76,29.734 C9.67908896,29.9300175 9.50232711,30.0700644 9.293,30.104 C9.08972618,30.1402135 8.88222983,30.0682713 8.745,29.914 C3.729,24.334 1.114,15.577 2.385,8.618 C2.846,6.088 3.795,4.087 4.989,3.126 C5.942,2.359 6.781,2.079 7.646,2.079 C8.569,2.079 9.523,2.397 10.68,2.783 C12.022,3.231 13.543,3.739 15.342,3.77 L15.378,3.77 C17.178,3.739 18.699,3.231 20.041,2.783 C22.282,2.036 23.763,1.541 25.731,3.125 C26.926,4.088 27.876,6.09 28.337,8.618 C28.707,10.646 28.752,12.928 28.47,15.256 L28.448,15.26 C28.053857,15.3310823 27.6558114,15.3785005 27.256,15.402 L27.189,15.407 C26.917589,15.4214521 26.6457338,15.4257885 26.374,15.42 L26.367,15.42 C26.2418954,15.4164258 26.1168718,15.4104247 25.992,15.402 C25.969,15.402 25.946,15.4 25.923,15.398 C25.8005099,15.3900201 25.6781599,15.3800187 25.556,15.368 L25.486,15.36 C25.36,15.346 25.233,15.33 25.106,15.312 L23.46,15.072 C22.5490061,14.9388965 21.6252401,15.209454 20.93,15.813 C20.2336508,16.4172359 19.8325714,17.2930474 19.83,18.215 L19.83,18.592 L19.831,18.804 L19.832,18.91 L19.834,19.112 L19.836,19.228 L19.84,19.428 L19.842,19.554 L19.847,19.751 L19.85,19.885 L19.856,20.085 L19.86,20.219 L19.868,20.429 L19.873,20.561 L19.883,20.781 C19.883,20.825 19.886,20.868 19.888,20.911 L19.899,21.147 L19.905,21.267 L19.92,21.535 L19.925,21.63 C19.94,21.876 19.956,22.126 19.975,22.38 L19.982,22.47 L20.004,22.76 L20.014,22.893 L20.036,23.146 L20.05,23.296 L20.072,23.539 L20.087,23.699 C20.1081894,23.9127847 20.1305231,24.1264544 20.154,24.34 L20.173,24.51 L20.2,24.749 L20.22,24.92 L20.251,25.164 L20.273,25.334 C20.283,25.419 20.295,25.504 20.307,25.589 L20.329,25.752 L20.369,26.037 L20.389,26.172 C20.4307835,26.4573908 20.4751186,26.7424022 20.522,27.027 L20.543,27.151 L20.595,27.459 C20.605,27.512 20.615,27.565 20.623,27.617 L20.673,27.893 L20.706,28.069 C20.7336352,28.2171979 20.7623025,28.3652015 20.792,28.513 L20.844,28.77 L20.883,28.958 L20.937,29.214 L20.978,29.401 L21.036,29.662 L21.078,29.846 L21.098,29.938 C21.0394776,29.8791924 20.9929476,29.8095673 20.961,29.733 C20.4660457,28.5796572 20.02556,27.4036937 19.641,26.209 Z M51.899,15.813 C51.2032104,15.2090066 50.2786412,14.9384277 49.367,15.072 L47.72,15.312 C45.008,15.708 42.243,15.022 39.934,13.382 L37.573,11.704 C36.8813143,11.2128707 35.9546857,11.2128707 35.263,11.704 L32.902,13.382 C32.182,13.892 31.422,14.312 30.627,14.634 C30.825,12.4 30.744,10.217 30.383,8.242 C29.826,5.185 28.636,2.79 27.034,1.5 C24.186,-0.79 21.75,0.022 19.395,0.808 C18.14,1.226 16.842,1.66 15.365,1.688 C13.889,1.66 12.591,1.226 11.335,0.808 C8.98,0.022 6.545,-0.79 3.696,1.501 C2.096,2.789 0.907,5.183 0.348,8.241 C-0.309,11.838 -0.03,16.053 1.134,20.11 C2.358,24.377 4.459,28.25 7.211,31.31 C7.82585715,31.9894306 8.74542008,32.3073157 9.64861304,32.1526621 C10.551806,31.9980086 11.3132205,31.3922901 11.667,30.547 C12.1889134,29.332164 12.6534262,28.0934633 13.059,26.835 C13.3720276,25.824757 14.3073741,25.1368352 15.365,25.139 C15.885,25.139 16.379,25.301 16.796,25.609 C17.214,25.916 17.518,26.34 17.673,26.835 C18.0776127,28.0938622 18.5414629,29.3329096 19.063,30.548 C19.5043393,31.5994801 20.5617113,32.2574806 21.7,32.189 C22.647,35.399 23.937,38.209 25.545,40.553 C27.727,43.734 30.51,46.083 33.817,47.538 C35.4750759,48.2653397 37.3619241,48.2653397 39.02,47.538 C44.577,45.094 48.562,40.228 50.866,33.073 C52.746,27.237 53.01,21.259 53,18.214 C52.9973765,17.2926307 52.5962544,16.4174551 51.9,15.814 L51.899,15.813 Z" id="tg2xa"></path>
                        </g>
                    </g>
                    <g transform="translate(27.000000, 21.000000)" fill="#20A2E8" fill-rule="nonzero" id="tg2xb-link">
                        <g>
                            <path d="M15.754,10.086 L12.896,10.086 C11.653654,10.0871017 10.6466538,11.0936546 10.645,12.336 L10.645,15.194 L8.032,15.194 L8.032,12.336 C8.032,11.096 7.022,10.086 5.782,10.086 L2.924,10.086 L2.924,7.473 L5.782,7.473 C7.022,7.473 8.032,6.463 8.032,5.222 L8.032,2.364 L10.645,2.364 L10.645,5.222 C10.6461017,6.464346 11.6526546,7.47134623 12.895,7.473 L15.754,7.473 L15.754,10.086 Z M16.251,5.419 L12.896,5.419 C12.7871999,5.419 12.699,5.3308001 12.699,5.222 L12.699,1.866 C12.699,1.008 12.001,0.31 11.143,0.31 L7.535,0.31 C6.676,0.31 5.978,1.008 5.978,1.866 L5.978,5.222 C5.9780014,5.33041076 5.89040937,5.41844969 5.782,5.419 L2.426,5.419 C1.568,5.419 0.87,6.117 0.87,6.975 L0.87,10.583 C0.87,11.442 1.568,12.14 2.426,12.14 L5.782,12.14 C5.89,12.14 5.978,12.228 5.978,12.336 L5.978,15.692 C5.978,16.55 6.676,17.248 7.535,17.248 L11.143,17.248 C12.001,17.248 12.699,16.55 12.699,15.692 L12.699,12.336 C12.699,12.228 12.787,12.14 12.896,12.14 L16.251,12.14 C17.109,12.14 17.808,11.442 17.808,10.583 L17.808,6.975 C17.808,6.117 17.109,5.419 16.251,5.419 Z" id="tg2xb"></path>
                        </g>
                    </g>
                    <g transform="translate(4.000000, 4.000000)" id="tg2xc-link">
                        <g></g>
                    </g>
                    <g transform="translate(7.000000, 18.000000)" fill="#20A2E8" fill-rule="nonzero" id="tg2xd-link">
                        <g>
                            <path d="M1.193,0.58 C0.59,0.58 0.1,1.069 0.1,1.672 L0.1,1.675 C0.100552537,2.27919914 0.59080055,2.76855145 1.19499969,2.76799909 C1.79919884,2.76744672 2.28855129,2.27719884 2.28799909,1.6729997 C2.28744689,1.06880055 1.79719915,0.579447968 1.193,0.58 Z" id="tg2xd"></path>
                        </g>
                    </g>
                </g>
            </g>
        </g>
    </g>
</svg>