<?xml version="1.0" encoding="UTF-8"?>
<svg width="53px" height="39px" viewBox="0 0 53 39" version="1.1" xmlns="http://www.w3.org/2000/svg" xmlns:xlink="http://www.w3.org/1999/xlink">
    <!-- Generator: Sketch 48.1 (47250) - http://www.bohemiancoding.com/sketch -->
    <title>icon-teeth-2</title>
    <desc>Created with Sketch.</desc>
    <defs></defs>
    <g id="Page-1" stroke="none" stroke-width="1" fill="none" fill-rule="evenodd">
        <g id="1" transform="translate(-197.000000, -362.000000)" fill="#20A2E8" fill-rule="nonzero">
            <g id="icon-teeth-2" transform="translate(197.000000, 362.000000)">
                <g id="Group">
                    <g id="ku9ua-link">
                        <path d="M49.94,28.271 C49.8152962,28.2063888 49.6874734,28.1479841 49.557,28.096 L49.497,28.072 C49.2936816,27.9929923 49.0843406,27.9304575 48.871,27.885 C48.0838639,27.7142391 47.2641005,27.775374 46.511,28.061 C46.2895731,28.1439351 46.0754898,28.2452901 45.871,28.364 L45.818,28.396 C45.7736162,28.4227106 45.7296118,28.4500466 45.686,28.478 L45.674,28.486 C45.2224093,27.4555648 44.400043,26.6324846 43.37,26.18 L43.352,26.172 C43.29678,26.1482514 43.2411028,26.1255805 43.185,26.104 L43.139,26.085 C43.0817858,26.0637184 43.0241049,26.0437134 42.966,26.025 L42.922,26.01 L42.876,25.996 C42.818604,25.9784108 42.7609299,25.961742 42.703,25.946 L42.651,25.933 C42.5866781,25.9165508 42.5219951,25.901547 42.457,25.888 C41.4465595,25.675905 40.3938738,25.8193246 39.477,26.294 C39.257,26.407 39.049,26.537 38.854,26.681 C38.3500412,25.462635 37.3928063,24.4874743 36.184,23.961 L36.177,23.957 C36.1082864,23.9271732 36.0389369,23.8988333 35.969,23.872 L35.934,23.858 C35.7706084,23.7968652 35.6044237,23.7434726 35.436,23.698 L35.401,23.69 C35.328038,23.6711314 35.2546886,23.6537943 35.181,23.638 L35.173,23.636 C34.0216457,23.3918958 32.8212835,23.5540879 31.776,24.095 C31.711,24.129 31.648,24.165 31.584,24.202 L31.554,24.218 C31.4795239,24.2611107 31.4061665,24.3061255 31.334,24.353 C31.278,24.39 31.221,24.425 31.166,24.463 L31.142,24.402 C31.1200952,24.3415859 31.0970914,24.2815759 31.073,24.222 L31.033,24.13 C30.9735763,23.9927123 30.9085212,23.8579313 30.838,23.726 L30.79,23.636 C30.7588643,23.5818227 30.7268602,23.5281491 30.694,23.475 L30.651,23.403 C30.5537359,23.2503039 30.4485938,23.1027712 30.336,22.961 L30.28,22.894 C30.2408782,22.8459314 30.2008714,22.79859 30.16,22.752 L30.092,22.677 C30.0526196,22.6340855 30.0126153,22.5917477 29.972,22.55 L29.899,22.478 C29.855354,22.4359355 29.8110146,22.3945965 29.766,22.354 L29.696,22.29 C29.6419117,22.2432464 29.5869008,22.1975707 29.531,22.153 L29.484,22.114 C29.4111154,22.0573902 29.3367565,22.0027047 29.261,21.95 L29.205,21.912 C29.1467722,21.8724911 29.0877604,21.8341501 29.028,21.797 C29.001,21.779 28.971,21.763 28.943,21.746 C28.8087577,21.6648955 28.6702215,21.5911208 28.528,21.525 L28.431,21.48 C28.371897,21.4533591 28.3122159,21.4280196 28.252,21.404 L28.166,21.369 C27.9946471,21.3035441 27.8200904,21.2468048 27.643,21.199 L27.599,21.189 C27.5290444,21.1704735 27.4586945,21.1534695 27.388,21.138 L27.371,21.134 C26.0837,20.8624501 24.7412578,21.099689 23.625,21.796 L23.613,21.762 L23.589,21.693 C23.5742651,21.6504523 23.5589302,21.6081147 23.543,21.566 L23.515,21.496 C23.4972537,21.4524207 23.4789186,21.4090834 23.46,21.366 L23.433,21.306 C22.908026,20.1488993 21.9169851,19.2687009 20.706,18.884 C19.4771192,18.4850624 18.1358796,18.6355874 17.026,19.297 L17.018,19.278 C16.9982337,19.2286251 16.9775636,19.1796169 16.956,19.131 L16.933,19.077 C16.9031978,19.0107793 16.8715184,18.9454195 16.838,18.881 L16.821,18.849 C16.7932897,18.7953044 16.7642812,18.7422888 16.734,18.69 L16.694,18.627 C16.6697635,18.5858689 16.6447592,18.5451951 16.619,18.505 L16.572,18.435 C16.5464615,18.3980083 16.5204595,18.3613387 16.494,18.325 L16.442,18.255 C16.369347,18.1600498 16.2926081,18.0682969 16.212,17.98 L16.158,17.92 C16.1222811,17.8827295 16.0859427,17.8460578 16.049,17.81 L16.004,17.764 C15.951,17.713 15.896,17.664 15.84,17.615 L15.823,17.601 C15.7727495,17.5580167 15.7213991,17.5163362 15.669,17.476 L15.609,17.432 C15.569,17.402 15.53,17.373 15.489,17.345 L15.417,17.297 C15.3159815,17.2289729 15.2115083,17.1662222 15.104,17.109 L15.024,17.066 C14.9820229,17.0449333 14.9396831,17.0245969 14.897,17.005 L14.817,16.967 C14.7696118,16.9463428 14.7219405,16.9263409 14.674,16.907 C14.651,16.898 14.628,16.887 14.604,16.879 C14.4594442,16.8243872 14.3122625,16.7769953 14.163,16.737 L14.075,16.716 L13.942,16.686 C13.9037499,16.6782382 13.8654141,16.6709044 13.827,16.664 L13.726,16.647 C13.6801044,16.6402253 13.6340978,16.6342245 13.588,16.629 L13.517,16.621 C13.4527849,16.6145807 13.3884359,16.6095795 13.324,16.606 C13.036056,16.5895952 12.7471874,16.6029997 12.462,16.646 C12.851,16.137 13.347,15.714 13.928,15.404 C14.4325121,15.1347612 14.6232388,14.5075121 14.354,14.003 C14.0847612,13.4984879 13.4575121,13.3077612 12.953,13.577 C12.3279101,13.9107021 11.7606462,14.3429032 11.273,14.857 L2.953,14.857 L2.073,2.849 C2.05786449,2.66073892 2.12241367,2.47476469 2.25092946,2.33636307 C2.37944525,2.19796145 2.5601351,2.11983212 2.749,2.121 L22.379,2.121 C22.636,2.121 22.801,2.256 22.876,2.337 C22.951,2.417 23.075,2.592 23.056,2.849 L22.264,13.631 C21.9299861,13.5724646 21.5956475,13.515797 21.261,13.461 C20.7128208,13.3996128 20.2126714,13.7785164 20.1233716,14.3228457 C20.0340717,14.867175 20.386941,15.3860205 20.926,15.503 C21.629,15.619 22.329,15.743 23.027,15.876 L23.033,15.877 C31.800331,17.5397168 40.2494262,20.5789475 48.067,24.882 L48.587,25.169 C49.9845928,25.9401511 50.8734498,27.3896718 50.927,28.985 C50.634884,28.6997794 50.302307,28.4591918 49.94,28.271 Z M50.118,32.208 L50.117,32.232 C50.111,32.284 50.101,32.336 50.092,32.388 C50.088,32.408 50.087,32.426 50.082,32.445 C50.072,32.49 50.06,32.535 50.047,32.579 C50.04,32.604 50.035,32.629 50.027,32.655 L48.9,36.167 C48.7741355,36.5631091 48.4056221,36.8315974 47.99,36.83 L47.982,36.83 C46.9063845,36.8193376 45.8456768,36.5771825 44.872,36.12 L44.481,35.936 L45.054,34.15 L45.952,31.349 C46.127,30.804 46.502,30.361 47.012,30.099 C47.5830933,29.8032663 48.2573615,29.7819426 48.846,30.041 C48.856,30.045 48.864,30.051 48.873,30.055 C48.9301959,30.080177 48.9862507,30.1078708 49.041,30.138 C49.776539,30.5554866 50.1982702,31.3660562 50.118,32.208 Z M42.808,34.408 L42.458,35.497 L42.238,36.179 C40.6278709,35.8752301 39.0615987,35.373069 37.575,34.684 L39.005,30.224 L39.217,29.565 C39.2643839,29.4192801 39.3246207,29.2780583 39.397,29.143 C39.404,29.133 39.409,29.122 39.415,29.112 C39.445,29.056 39.48,29.003 39.515,28.951 C39.527,28.931 39.54,28.913 39.553,28.894 C39.6024077,28.8242854 39.6558314,28.7575058 39.713,28.694 C39.767552,28.6333238 39.8246012,28.5749401 39.884,28.519 C39.9760993,28.4345788 40.0740062,28.3567211 40.177,28.286 L40.255,28.236 C40.7875452,27.903053 41.4278967,27.7880906 42.043,27.915 L42.056,27.918 C42.1224117,27.9319798 42.1881474,27.9489977 42.253,27.969 C42.3430971,27.9934845 42.4310537,28.0252559 42.516,28.064 L42.529,28.069 C42.594,28.097 42.658,28.129 42.72,28.163 L42.75,28.179 C42.806,28.21 42.86,28.244 42.912,28.279 L42.969,28.319 C43.0732564,28.3947563 43.1721582,28.47762 43.265,28.567 C43.4050823,28.7047742 43.5276709,28.8592694 43.63,29.027 C44.0084506,29.6355592 44.1002367,30.3797212 43.881,31.062 L42.808,34.408 Z M35.677,33.805 L35.184,35.34 C35.0812908,35.6561389 34.7843628,35.8682883 34.452,35.863 C32.736061,35.8305412 31.0672685,35.2958322 29.652,34.325 C29.3795471,34.1358029 29.2620003,33.7912692 29.362,33.475 L31.209,27.719 C31.225,27.669 31.242,27.62 31.261,27.572 L31.269,27.552 C31.2854508,27.5089801 31.3027878,27.4663043 31.321,27.424 C31.9054662,26.1011558 33.3355426,25.3673557 34.751,25.664 L34.753,25.664 C34.797,25.672 34.843,25.684 34.887,25.695 L34.905,25.7 C35.0054316,25.7270031 35.1045407,25.7587046 35.202,25.795 L35.219,25.802 C36.7291953,26.383981 37.5240916,28.0421707 37.032,29.584 L35.677,33.805 Z M27.39,32.84 C27.2863895,33.1553407 26.9898917,33.3667777 26.658,33.362 C24.9420222,33.329775 23.2731642,32.795045 21.858,31.824 C21.5855471,31.6348029 21.4680003,31.2902692 21.568,30.974 L23.415,25.219 C23.431,25.169 23.448,25.119 23.467,25.072 L23.475,25.052 C23.4913563,25.0086126 23.5086941,24.9656015 23.527,24.923 C24.1104066,23.6031044 25.5357266,22.8692021 26.949,23.161 L26.959,23.163 C27.001,23.172 27.042,23.182 27.084,23.193 L27.111,23.199 C27.7506879,23.3681481 28.3179315,23.7409283 28.727,24.261 C29.152,24.801 29.39,25.478 29.384,26.179 C29.382,26.479 29.334,26.784 29.238,27.084 L27.39,32.84 Z M20.008,29.033 C18.4023137,28.7296808 16.8404091,28.2285277 15.358,27.541 L15.576,26.861 L15.576,26.86 L16.996,22.433 C17.01,22.388 17.029,22.343 17.046,22.299 C17.058,22.268 17.068,22.235 17.081,22.205 C17.099,22.165 17.12,22.126 17.14,22.087 C17.156,22.055 17.17,22.021 17.188,21.99 C17.208,21.954 17.231,21.92 17.253,21.885 C17.273,21.852 17.291,21.819 17.313,21.787 C17.336,21.754 17.363,21.723 17.387,21.691 L17.457,21.599 L17.546,21.505 C17.57,21.479 17.594,21.451 17.62,21.426 C17.654,21.393 17.69,21.363 17.727,21.332 C17.751,21.312 17.774,21.289 17.799,21.269 C17.843,21.234 17.889,21.202 17.937,21.17 C17.956,21.157 17.974,21.142 17.994,21.13 C18.6076377,20.7299717 19.3692597,20.6288877 20.066,20.855 C20.687,21.054 21.193,21.483 21.491,22.063 C21.79,22.643 21.844,23.305 21.645,23.926 L21.291,25.032 L20.008,29.033 Z M11.061,20.157 L11.061,20.155 L11.071,20.132 C11.0889204,20.0779098 11.1089355,20.0245362 11.131,19.972 L11.161,19.905 C11.1900132,19.8424792 11.2220511,19.781407 11.257,19.722 L11.308,19.64 C11.3262934,19.6118546 11.3452995,19.584179 11.365,19.557 C11.4592669,19.4271283 11.5679617,19.3083691 11.689,19.203 L11.729,19.167 C11.807252,19.1037202 11.8890516,19.044958 11.974,18.991 L12.043,18.951 C12.1,18.919 12.159,18.889 12.219,18.862 L12.288,18.832 C12.323,18.816 12.36,18.804 12.396,18.792 L12.462,18.769 C12.499,18.757 12.537,18.746 12.575,18.737 C12.595,18.731 12.616,18.727 12.637,18.722 L12.757,18.698 L12.807,18.691 C12.884,18.681 12.961,18.675 13.039,18.672 L13.106,18.67 C13.2382731,18.6713849 13.3701474,18.6847732 13.5,18.71 L13.566,18.723 C13.9770498,18.8145784 14.3517929,19.0257847 14.643,19.33 C15.168,19.88 15.383,20.69 15.136,21.463 L15.026,21.803 L15.026,21.804 L13.664,26.051 L13.238,25.973 C12.179932,25.7783684 11.1761815,25.3581779 10.295,24.741 C9.95179289,24.5016443 9.80560329,24.0659181 9.935,23.668 L11.061,20.157 Z M20.734,34.463 C20.7146246,34.717935 20.5380781,34.9336253 20.292,35.003 C15.2368781,36.4159626 9.89112193,36.4159626 4.836,35.003 C4.58992195,34.9336253 4.41337541,34.717935 4.394,34.463 L3.106,16.926 L9.944,16.926 C9.884,17.075 9.827,17.226 9.778,17.38 L9.091,19.518 L9.09,19.523 L7.964,23.033 C7.55493958,24.2933414 8.01819242,25.6729498 9.105,26.431 C10.2316797,27.2190605 11.5147025,27.7555291 12.867,28.004 L13.316,28.086 C13.455996,28.6465096 13.8398468,29.1147634 14.362,29.362 C15.9887614,30.1274277 17.703702,30.6893344 19.468,31.035 C19.4124246,32.0229264 19.8745102,32.968687 20.688,33.532 C20.724,33.557 20.761,33.58 20.798,33.604 L20.734,34.463 Z M49.064,23.068 C41.3230648,18.8068632 32.975864,15.7549011 24.312,14.018 L25.121,3 C25.1759238,2.23799474 24.9123093,1.48734501 24.393,0.927 C23.8723068,0.368650224 23.1434623,0.0511158538 22.38,0.05 L2.749,0.05 C1.987,0.05 1.254,0.37 0.735,0.927 C0.215585476,1.48728155 -0.0480456621,2.23797845 0.007,3 L2.274,33.875 L2.329,34.624 C2.41400044,35.7490449 3.19302299,36.7010504 4.279,37.007 C9.69839457,38.5223725 15.4296054,38.5223725 20.849,37.007 C21.9193886,36.7050939 22.69286,35.7745422 22.794,34.667 C24.0281445,35.1612823 25.3426848,35.4243259 26.672,35.443 C27.033,35.443 27.384,35.371 27.709,35.241 C27.908,35.551 28.168,35.825 28.482,36.041 C30.2297465,37.241291 32.2911691,37.9025873 34.411,37.943 L34.466,37.943 C35.443,37.943 36.346,37.426 36.856,36.621 C38.492488,37.3654936 40.2144552,37.9055606 41.983,38.229 C42.5522962,38.3332581 43.1382554,38.1752879 43.578,37.799 L43.989,37.993 C45.233748,38.5776852 46.5898387,38.8873759 47.965,38.901 L47.991,38.901 C49.311,38.901 50.468,38.059 50.871,36.799 L51.998,33.289 L51.998,33.288 L52.686,31.144 C53.6448326,28.1402478 52.3464982,24.877659 49.586,23.354 L49.064,23.068 Z" id="ku9ua"></path>
                    </g>
                </g>
            </g>
        </g>
    </g>
</svg>