<?xml version="1.0" encoding="UTF-8"?>
<svg width="44px" height="50px" viewBox="0 0 44 50" version="1.1" xmlns="http://www.w3.org/2000/svg" xmlns:xlink="http://www.w3.org/1999/xlink">
    <!-- Generator: Sketch 48.1 (47250) - http://www.bohemiancoding.com/sketch -->
    <title>icon-teeth-7</title>
    <desc>Created with Sketch.</desc>
    <defs></defs>
    <g id="Page-1" stroke="none" stroke-width="1" fill="none" fill-rule="evenodd">
        <g id="1" transform="translate(-153.000000, -1.000000)" fill="#20A2E8" fill-rule="nonzero">
            <g id="icon-teeth-7" transform="translate(153.000000, 0.000000)">
                <g id="Group">
                    <g id="9npca-link">
                        <g>
                            <path d="M39.654,33.808 C39.677,33.431 39.69,33.052 39.69,32.671 L39.69,27.374 C41.1032564,27.8037259 42.0678853,29.1088599 42.064,30.586 C42.0679332,32.0768877 41.0852795,33.3906265 39.654,33.808 Z M33.113,44.257 C30.111,47.292 26.119,48.963 21.873,48.964 C17.626,48.964 13.632,47.266 10.626,44.184 C7.626,41.109 5.976,37.035 5.976,32.714 L5.976,15.841 C6.503,15.881 7.028,16.053 7.499,16.365 C11.4559696,18.9910697 16.2870321,19.9554863 20.949,19.05 C24.7177168,18.3291766 28.1617394,16.4344216 30.788,13.637 L30.788,16.195 C30.788,20.287 33.843,23.67 37.768,24.138 L37.768,32.893 C37.768,37.186 36.115,41.222 33.113,44.257 Z M2.173,30.581 C2.16987762,29.1055505 3.13411721,27.8024251 4.546,27.374 L4.546,32.484 C4.546,32.926 4.562,33.364 4.593,33.801 C3.15766428,33.3886809 2.16989829,32.0743807 2.173,30.581 Z M3.259,14.741 L3.44,14.199 C3.91158111,12.7813099 4.96327647,11.6307341 6.333,11.034 C7.69678045,10.4437784 9.24845514,10.4681826 10.593,11.101 C13.417,12.431 16.83,11.712 18.893,9.353 L19.125,9.089 C19.4658062,8.69813904 19.4302003,8.10619139 19.045,7.759 C18.8606822,7.59292241 18.6173741,7.50785062 18.3697282,7.52289365 C18.1220822,7.53793668 17.8908603,7.65183339 17.728,7.839 L17.498,8.104 C15.976,9.842 13.461,10.372 11.381,9.392 C9.55630127,8.53245837 7.45012122,8.49894599 5.599,9.3 C5.43125802,9.37350877 5.26646462,9.45357034 5.105,9.54 C6.189,6.618 8.812,4.56 12.939,3.41 C17.037,2.266 21.393,2.413 25.536,3.835 L31.086,5.741 L31.159,10.612 C28.688,14.01 25.084,16.311 20.976,17.102 C16.7880567,17.9154401 12.4482099,17.048692 8.894,14.689 C7.18334032,13.5470828 4.94829484,13.5677078 3.259,14.741 Z M35.933,6.103 C37.1076258,6.87799892 37.8090751,8.19580487 37.796,9.603 L37.796,21.935 C34.896,21.48 32.67,18.945 32.67,15.895 L32.593,5.535 C33.7359161,5.22870689 34.9555811,5.43612296 35.933,6.103 Z M44,30.957 C44,28.396 42.169,26.26 39.762,25.815 L39.762,10.04 C39.7675986,8.00517154 38.7573733,6.10176139 37.069,4.966 C35.5004991,3.90836166 33.5225238,3.65962978 31.741,4.296 L25.888,2.286 C21.389,0.742 16.654,0.584 12.195,1.828 C6.357,3.458 3.01,6.902 2.493,11.798 C2.03056293,12.4143964 1.67029394,13.1011697 1.426,13.832 L0.972,15.191 C0.728,15.921 0.997,16.687 1.641,17.099 C2.269518,17.5112105 3.10130608,17.4242699 3.631,16.891 C3.819,16.708 4.023,16.554 4.238,16.425 L4.238,25.814 C1.831,26.259 0,28.394 0,30.956 C0,33.62 1.98,35.823 4.53,36.143 C5.17050895,39.7334266 6.87644725,43.0480898 9.426,45.656 C12.785,49.101 17.25,50.999 22,50.999 L22.002,50.999 C26.746,50.999 31.205,49.13 34.559,45.739 C37.1546278,43.1238178 38.8798152,39.7712269 39.499,36.139 C42.035,35.806 44,33.609 44,30.956 L44,30.957 Z" id="9npca"></path>
                        </g>
                    </g>
                    <g transform="translate(11.000000, 35.000000)" id="9npcb-link">
                        <g>
                            <path d="M11.214,9.191 C7.414,9.191 4.156,7.711 2.821,5.62 C3.733,5.128 5.671,5.216 7.864,5.316 C8.881,5.363 10.034,5.416 11.214,5.416 C12.395,5.416 13.548,5.363 14.564,5.316 C16.757,5.216 18.695,5.128 19.607,5.62 C18.272,7.71 15.014,9.191 11.214,9.191 Z M2.669,2.111 C3.156,1.686 4.215,1.571 5.516,1.571 C6.266,1.571 7.098,1.61 7.946,1.649 C8.963,1.696 10.116,1.749 11.298,1.749 C12.4156228,1.74157182 13.5329231,1.70822952 14.649,1.649 C16.968,1.542 19.157,1.441 19.926,2.111 C20.028,2.2 20.339,2.471 20.339,3.327 C20.339,3.457 20.329,3.587 20.315,3.715 C18.911,3.146 16.908,3.238 14.549,3.346 C13.507,3.394 12.429,3.444 11.298,3.444 C10.166,3.444 9.088,3.394 8.046,3.346 C5.687,3.238 3.684,3.146 2.28,3.716 C2.26508368,3.58685278 2.25707228,3.45700135 2.256,3.327 C2.256,2.47 2.566,2.2 2.669,2.111 Z M14.253,0.081 C13.1695652,0.138546033 12.0849387,0.17088811 11,0.178 C9.868,0.178 8.79,0.128 7.747,0.081 C4.759,-0.056 2.399,-0.164 1.021,1.031 C0.344,1.619 0,2.461 0,3.536 C0,5.586 1.187,7.494 3.343,8.907 C5.401,10.257 8.12,11 11,11 C13.88,11 16.6,10.257 18.657,8.907 C20.813,7.494 22,5.587 22,3.536 C22,2.461 21.656,1.619 20.979,1.031 C19.601,-0.164 17.241,-0.056 14.253,0.081 Z" id="9npcb"></path>
                        </g>
                    </g>
                </g>
            </g>
        </g>
    </g>
</svg>